<?xml version="1.0" encoding="utf-8"?>
<!-- Generator: Adobe Illustrator 25.2.1, SVG Export Plug-In . SVG Version: 6.00 Build 0)  -->
<svg version="1.1" id="Layer_1" xmlns="http://www.w3.org/2000/svg" xmlns:xlink="http://www.w3.org/1999/xlink" x="0px" y="0px"
	 viewBox="0 0 68.9 68.5" style="enable-background:new 0 0 68.9 68.5;" xml:space="preserve">
<style type="text/css">
	.st0{fill:#00C0E8;}
	.st1{fill:none;}
	.st2{font-family:'Decimal-Bold';}
	.st3{font-size:18px;}
</style>
<g>
	<g id="Layer_4">
		<g>
			<path class="st0" d="M16.6,17.8H1.2v-2h14.4V1.6h2v15.1C17.6,17.3,17.2,17.8,16.6,17.8z"/>
		</g>
		<g>
			<path class="st0" d="M51,68.5H1c-0.6,0-1-0.4-1-1V16.8c0-0.3,0.1-0.5,0.3-0.7L15.9,0.5c0.2-0.2,0.4-0.3,0.7-0.3L51,0
				c0.3,0,0.5,0.1,0.7,0.3S52,0.7,52,1v30.8h-2V2L17,2.2l-15,15v49.3h48V60h2v7.6C52,68.1,51.5,68.5,51,68.5z"/>
		</g>
		<g>
			<path class="st0" d="M68.4,57h-0.5c-0.3,0-0.5-0.2-0.5-0.5s0.2-0.5,0.5-0.5c0-0.3,0.2-0.5,0.5-0.5s0.5,0.2,0.5,0.5v0.5
				C68.9,56.8,68.7,57,68.4,57z"/>
		</g>
		<g>
			<path class="st0" d="M65,57h-1c-0.3,0-0.5-0.2-0.5-0.5S63.7,56,64,56h1c0.3,0,0.5,0.2,0.5,0.5S65.3,57,65,57z M61.1,57h-1
				c-0.3,0-0.5-0.2-0.5-0.5s0.2-0.5,0.5-0.5h1c0.3,0,0.5,0.2,0.5,0.5S61.4,57,61.1,57z M57.2,57h-1c-0.3,0-0.5-0.2-0.5-0.5
				S56,56,56.3,56h1c0.3,0,0.5,0.2,0.5,0.5S57.5,57,57.2,57z M53.4,57h-1c-0.3,0-0.5-0.2-0.5-0.5s0.2-0.5,0.5-0.5h1
				c0.3,0,0.5,0.2,0.5,0.5S53.7,57,53.4,57z M49.5,57h-1c-0.3,0-0.5-0.2-0.5-0.5s0.2-0.5,0.5-0.5h1c0.3,0,0.5,0.2,0.5,0.5
				S49.8,57,49.5,57z M45.6,57h-1c-0.3,0-0.5-0.2-0.5-0.5s0.2-0.5,0.5-0.5h1c0.3,0,0.5,0.2,0.5,0.5S45.9,57,45.6,57z M41.8,57h-1
				c-0.3,0-0.5-0.2-0.5-0.5s0.2-0.5,0.5-0.5h1c0.3,0,0.5,0.2,0.5,0.5S42,57,41.8,57z M37.9,57h-1c-0.3,0-0.5-0.2-0.5-0.5
				s0.2-0.5,0.5-0.5h1c0.3,0,0.5,0.2,0.5,0.5S38.2,57,37.9,57z M34,57h-1c-0.3,0-0.5-0.2-0.5-0.5S32.7,56,33,56h1
				c0.3,0,0.5,0.2,0.5,0.5S34.3,57,34,57z M30.2,57h-1c-0.3,0-0.5-0.2-0.5-0.5s0.2-0.5,0.5-0.5h1c0.3,0,0.5,0.2,0.5,0.5
				S30.4,57,30.2,57z M26.3,57h-1c-0.3,0-0.5-0.2-0.5-0.5S25,56,25.3,56h1c0.3,0,0.5,0.2,0.5,0.5S26.6,57,26.3,57z M22.4,57h-1
				c-0.3,0-0.5-0.2-0.5-0.5s0.2-0.5,0.5-0.5h1c0.3,0,0.5,0.2,0.5,0.5S22.7,57,22.4,57z M18.6,57h-1c-0.3,0-0.5-0.2-0.5-0.5
				s0.2-0.5,0.5-0.5h1c0.3,0,0.5,0.2,0.5,0.5S18.8,57,18.6,57z M14.7,57h-1c-0.3,0-0.5-0.2-0.5-0.5s0.2-0.5,0.5-0.5h1
				c0.3,0,0.5,0.2,0.5,0.5S15,57,14.7,57z"/>
		</g>
		<g>
			<path class="st0" d="M10.8,57h-0.5c-0.3,0-0.5-0.2-0.5-0.5V56c0-0.3,0.2-0.5,0.5-0.5s0.5,0.2,0.5,0.5c0.3,0,0.5,0.2,0.5,0.5
				S11.1,57,10.8,57z"/>
		</g>
		<g>
			<path class="st0" d="M10.3,53.8c-0.3,0-0.5-0.2-0.5-0.5v-0.9c0-0.3,0.2-0.5,0.5-0.5s0.5,0.2,0.5,0.5v0.9
				C10.8,53.6,10.6,53.8,10.3,53.8z M10.3,50.1c-0.3,0-0.5-0.2-0.5-0.5v-0.9c0-0.3,0.2-0.5,0.5-0.5s0.5,0.2,0.5,0.5v0.9
				C10.8,49.9,10.6,50.1,10.3,50.1z M10.3,46.5c-0.3,0-0.5-0.2-0.5-0.5v-0.9c0-0.3,0.2-0.5,0.5-0.5s0.5,0.2,0.5,0.5V46
				C10.8,46.3,10.6,46.5,10.3,46.5z M10.3,42.8c-0.3,0-0.5-0.2-0.5-0.5v-0.9c0-0.3,0.2-0.5,0.5-0.5s0.5,0.2,0.5,0.5v0.9
				C10.8,42.6,10.6,42.8,10.3,42.8z M10.3,39.2c-0.3,0-0.5-0.2-0.5-0.5v-0.9c0-0.3,0.2-0.5,0.5-0.5s0.5,0.2,0.5,0.5v0.9
				C10.8,39,10.6,39.2,10.3,39.2z"/>
		</g>
		<g>
			<path class="st0" d="M10.3,35.5c-0.3,0-0.5-0.2-0.5-0.5v-0.5c0-0.3,0.2-0.5,0.5-0.5h0.5c0.3,0,0.5,0.2,0.5,0.5S11.1,35,10.8,35
				C10.8,35.3,10.6,35.5,10.3,35.5z"/>
		</g>
		<g>
			<path class="st0" d="M65,35h-1c-0.3,0-0.5-0.2-0.5-0.5S63.7,34,64,34h1c0.3,0,0.5,0.2,0.5,0.5S65.2,35,65,35z M61.1,35h-1
				c-0.3,0-0.5-0.2-0.5-0.5s0.2-0.5,0.5-0.5h1c0.3,0,0.5,0.2,0.5,0.5S61.4,35,61.1,35z M57.2,35h-1c-0.3,0-0.5-0.2-0.5-0.5
				S56,34,56.3,34h1c0.3,0,0.5,0.2,0.5,0.5S57.5,35,57.2,35z M53.4,35h-1c-0.3,0-0.5-0.2-0.5-0.5s0.2-0.5,0.5-0.5h1
				c0.3,0,0.5,0.2,0.5,0.5S53.6,35,53.4,35z M49.5,35h-1c-0.3,0-0.5-0.2-0.5-0.5s0.2-0.5,0.5-0.5h1c0.3,0,0.5,0.2,0.5,0.5
				S49.8,35,49.5,35z M45.6,35h-1c-0.3,0-0.5-0.2-0.5-0.5s0.2-0.5,0.5-0.5h1c0.3,0,0.5,0.2,0.5,0.5S45.9,35,45.6,35z M41.8,35h-1
				c-0.3,0-0.5-0.2-0.5-0.5s0.2-0.5,0.5-0.5h1c0.3,0,0.5,0.2,0.5,0.5S42,35,41.8,35z M37.9,35h-1c-0.3,0-0.5-0.2-0.5-0.5
				s0.2-0.5,0.5-0.5h1c0.3,0,0.5,0.2,0.5,0.5S38.2,35,37.9,35z M34,35h-1c-0.3,0-0.5-0.2-0.5-0.5S32.8,34,33,34h1
				c0.3,0,0.5,0.2,0.5,0.5S34.3,35,34,35z M30.1,35h-1c-0.3,0-0.5-0.2-0.5-0.5s0.2-0.5,0.5-0.5h1c0.3,0,0.5,0.2,0.5,0.5
				S30.4,35,30.1,35z M26.3,35h-1c-0.3,0-0.5-0.2-0.5-0.5S25,34,25.3,34h1c0.3,0,0.5,0.2,0.5,0.5S26.5,35,26.3,35z M22.4,35h-1
				c-0.3,0-0.5-0.2-0.5-0.5s0.2-0.5,0.5-0.5h1c0.3,0,0.5,0.2,0.5,0.5S22.7,35,22.4,35z M18.5,35h-1c-0.3,0-0.5-0.2-0.5-0.5
				s0.2-0.5,0.5-0.5h1c0.3,0,0.5,0.2,0.5,0.5S18.8,35,18.5,35z M14.7,35h-1c-0.3,0-0.5-0.2-0.5-0.5s0.2-0.5,0.5-0.5h1
				c0.3,0,0.5,0.2,0.5,0.5S14.9,35,14.7,35z"/>
		</g>
		<g>
			<path class="st0" d="M68.4,35.5c-0.3,0-0.5-0.2-0.5-0.5c-0.3,0-0.5-0.2-0.5-0.5s0.2-0.5,0.5-0.5h0.5c0.3,0,0.5,0.2,0.5,0.5V35
				C68.9,35.3,68.7,35.5,68.4,35.5z"/>
		</g>
		<g>
			<path class="st0" d="M68.4,53.8c-0.3,0-0.5-0.2-0.5-0.5v-0.9c0-0.3,0.2-0.5,0.5-0.5s0.5,0.2,0.5,0.5v0.9
				C68.9,53.5,68.7,53.8,68.4,53.8z M68.4,50.1c-0.3,0-0.5-0.2-0.5-0.5v-0.9c0-0.3,0.2-0.5,0.5-0.5s0.5,0.2,0.5,0.5v0.9
				C68.9,49.9,68.7,50.1,68.4,50.1z M68.4,46.5c-0.3,0-0.5-0.2-0.5-0.5v-1c0-0.3,0.2-0.5,0.5-0.5s0.5,0.2,0.5,0.5v1
				C68.9,46.2,68.7,46.5,68.4,46.5z M68.4,42.8c-0.3,0-0.5-0.2-0.5-0.5v-0.9c0-0.3,0.2-0.5,0.5-0.5s0.5,0.2,0.5,0.5v0.9
				C68.9,42.6,68.7,42.8,68.4,42.8z M68.4,39.2c-0.3,0-0.5-0.2-0.5-0.5v-0.9c0-0.3,0.2-0.5,0.5-0.5s0.5,0.2,0.5,0.5v0.9
				C68.9,38.9,68.7,39.2,68.4,39.2z"/>
		</g>
	</g>
</g>
<rect x="12.7" y="37.1" class="st1" width="51" height="17.7"/>
<text transform="matrix(1 0 0 1 21.0986 50.9324)" class="st0 st2 st3">&lt;/&gt;</text>
</svg>
