<?xml version="1.0" encoding="utf-8"?>
<!-- Generator: Adobe Illustrator 25.2.1, SVG Export Plug-In . SVG Version: 6.00 Build 0)  -->
<svg version="1.1" id="Layer_1" xmlns="http://www.w3.org/2000/svg" xmlns:xlink="http://www.w3.org/1999/xlink" x="0px" y="0px"
	 viewBox="0 0 93.2 55.7" style="enable-background:new 0 0 93.2 55.7;" xml:space="preserve">
<style type="text/css">
	.st0{fill:#FFFFFF;}
</style>
<path class="st0" d="M78.4,29.1c-1.6,0-3.2-0.2-4.8-0.6c-1.2-0.2-2.5-0.7-3.6-1.2c-0.4-0.2-0.8-0.5-1-0.9c-0.1-0.3-0.2-0.6-0.2-0.9
	V24c0-0.6,0.2-1,0.7-1c0.2,0,0.4,0,0.6,0.1l0.8,0.3c1.1,0.5,2.2,0.8,3.4,1.1c1.2,0.3,2.5,0.4,3.7,0.4c1.6,0.1,3.1-0.2,4.5-1
	c1-0.6,1.6-1.7,1.6-2.9c0-0.8-0.3-1.6-0.8-2.2c-0.9-0.8-2-1.3-3.1-1.6l-4.4-1.4c-2-0.5-3.7-1.6-5-3.2c-1-1.3-1.5-2.9-1.6-4.5
	c0-1.2,0.3-2.4,0.9-3.5c0.6-1,1.3-1.9,2.2-2.5c1-0.7,2.1-1.3,3.2-1.6C76.8,0.2,78.1,0,79.4,0c0.7,0,1.4,0,2.1,0.1
	c0.7,0.1,1.4,0.2,2,0.3s1.2,0.3,1.8,0.5c0.5,0.1,0.9,0.3,1.3,0.6c0.4,0.2,0.7,0.4,0.9,0.8c0.2,0.3,0.3,0.6,0.3,1v1.5
	c0,0.7-0.2,1-0.7,1c-0.4,0-0.8-0.2-1.2-0.4c-1.9-0.8-3.9-1.3-6-1.2c-1.4-0.1-2.8,0.2-4.1,0.9c-0.9,0.6-1.5,1.6-1.4,2.7
	c0,0.8,0.3,1.6,0.9,2.2c1,0.8,2.2,1.4,3.4,1.7l4.4,1.4c1.9,0.5,3.5,1.5,4.8,3c1,1.2,1.5,2.8,1.4,4.3c0,1.2-0.3,2.5-0.8,3.6
	c-0.6,1.1-1.3,2-2.3,2.7c-1,0.8-2.2,1.4-3.4,1.7C81.4,28.9,79.9,29.1,78.4,29.1 M38.6,28.3c-0.4,0.1-0.8-0.1-1.2-0.3
	c-0.3-0.3-0.5-0.7-0.7-1.2l-7.3-24c-0.1-0.4-0.2-0.8-0.3-1.2c-0.1-0.4,0.2-0.7,0.6-0.8c0.1,0,0.1,0,0.2,0h3c0.4,0,0.9,0.1,1.2,0.3
	c0.3,0.3,0.5,0.8,0.6,1.2L40,22.8l4.8-20.5c0.1-0.5,0.3-0.9,0.6-1.2c0.4-0.2,0.8-0.3,1.2-0.3h2.5c0.4,0,0.9,0.1,1.2,0.3
	c0.3,0.3,0.5,0.8,0.6,1.2l4.9,20.8l5.4-20.8c0.1-0.4,0.3-0.9,0.6-1.2c0.4-0.2,0.8-0.3,1.2-0.3h2.9c0.4,0,0.7,0.2,0.8,0.6
	c0,0.1,0,0.1,0,0.2c0,0.2,0,0.3-0.1,0.5c-0.1,0.3-0.1,0.5-0.2,0.8l-7.5,24c-0.1,0.4-0.3,0.8-0.6,1.1c-0.4,0.2-0.8,0.3-1.2,0.3h-2.7
	c-0.4,0-0.9-0.1-1.2-0.3c-0.3-0.3-0.5-0.8-0.6-1.2l-4.8-20l-4.8,20c-0.1,0.5-0.3,0.9-0.6,1.2c-0.4,0.2-0.8,0.3-1.2,0.3L38.6,28.3z
	 M13.7,24.9c1.1,0,2.2-0.2,3.2-0.6c1.1-0.4,2.2-1.1,3-2c0.5-0.6,0.9-1.3,1-2c0.2-0.9,0.3-1.8,0.3-2.7v-1.3c-0.9-0.2-1.9-0.4-2.9-0.5
	c-1-0.1-1.9-0.2-2.9-0.2c-1.6-0.1-3.3,0.4-4.6,1.3c-1,0.9-1.6,2.2-1.5,3.6c-0.1,1.2,0.3,2.4,1.1,3.3C11.3,24.7,12.5,25.1,13.7,24.9
	 M26.2,20.3c0,0.9,0.1,1.8,0.3,2.7c0.3,0.8,0.6,1.5,1,2.2c0.1,0.2,0.2,0.5,0.2,0.7c0,0.4-0.3,0.7-0.6,0.9l-2,1.3
	c-0.2,0.2-0.5,0.3-0.8,0.3c-0.3,0-0.7-0.2-0.9-0.4c-0.4-0.5-0.8-0.9-1.1-1.5c-0.3-0.5-0.6-1.1-1-1.8c-2.2,2.7-5.6,4.3-9.1,4.3
	c-2.3,0.1-4.5-0.7-6.2-2.2c-1.6-1.6-2.4-3.7-2.3-5.9c-0.1-2.4,1-4.8,2.8-6.4c2.1-1.7,4.8-2.6,7.6-2.4c1.1,0,2.2,0.1,3.3,0.2
	c1.1,0.1,2.3,0.4,3.6,0.7v-2.2c0-2.4-0.5-4-1.5-5s-2.6-1.4-5-1.4c-1.1,0-2.3,0.1-3.4,0.4C10.1,5,9,5.3,7.9,5.7
	C7.6,5.9,7.2,6,6.8,6.1C6.7,6.2,6.5,6.2,6.3,6.2c-0.4,0-0.7-0.3-0.7-1V3.8c0-0.4,0-0.8,0.2-1.1C6.1,2.4,6.4,2.2,6.8,2
	C8,1.4,9.3,0.9,10.7,0.7c1.6-0.4,3.2-0.6,4.8-0.6c3.7,0,6.4,0.8,8.1,2.5s2.6,4.2,2.6,7.6L26.2,20.3L26.2,20.3z"/>
<path class="st0" d="M88.5,39.3c-1.3-1.7-8.6-0.8-11.9-0.4c-1,0.1-1.1-0.7-0.2-1.4c5.8-4.1,15.4-2.9,16.5-1.5S92.5,47,87,51.6
	c-0.8,0.7-1.6,0.3-1.3-0.6C87,47.9,89.7,41,88.5,39.3 M84.2,44.2c-10.2,7.5-25,11.5-37.7,11.5c-17,0.1-33.4-6.2-46.1-17.6
	c-0.9-0.9-0.1-2,1-1.4c14,8,29.9,12.2,46.1,12.2c12.1-0.1,24-2.5,35.2-7.2C84.4,41,85.9,42.9,84.2,44.2"/>
</svg>
