<?xml version="1.0" encoding="utf-8"?>
<!-- Generator: Adobe Illustrator 25.2.1, SVG Export Plug-In . SVG Version: 6.00 Build 0)  -->
<svg version="1.1" id="Layer_2_1_" xmlns="http://www.w3.org/2000/svg" xmlns:xlink="http://www.w3.org/1999/xlink" x="0px" y="0px"
	 viewBox="0 0 67.3 56.1" style="enable-background:new 0 0 67.3 56.1;" xml:space="preserve">
<style type="text/css">
	.st0{fill:#FFFFFF;}
</style>
<g>
	<path class="st0" d="M49.2,33.4V2.1c0-1.2,0.9-2.1,2.1-2.1c0.1,0,0.2,0,0.3,0L57,0.8c1,0.2,1.8,1,1.8,2.1v30.5L54,27.9L49.2,33.4z
		 M54,24.9l2.8,3.2V2.9c0-0.1,0-0.1-0.1-0.1L51.3,2c-0.1,0-0.1,0.1-0.1,0.1v26L54,24.9z"/>
</g>
<g>
	<path class="st0" d="M8.8,11.5l-0.3-2l12.1-1.7c1-0.1,2.1-0.2,3.2-0.2c2,0,3.9,0.3,5.8,0.8l-0.5,1.9c-1.7-0.5-3.5-0.7-5.3-0.7
		c-1,0-1.9,0.1-2.9,0.2L8.8,11.5z"/>
</g>
<g>
	<path class="st0" d="M38.6,10.3l-0.5-1.9C40,7.8,42,7.6,43.9,7.5v2l0,0C42.1,9.5,40.3,9.8,38.6,10.3z"/>
</g>
<g>
	<path class="st0" d="M8.8,20.8l-0.3-2l12.1-1.7c1-0.2,2.1-0.2,3.1-0.2c2,0,3.9,0.3,5.9,0.8l-0.5,1.9c-1.7-0.5-3.5-0.7-5.3-0.7
		c-0.9,0-1.9,0.1-2.9,0.2L8.8,20.8z"/>
</g>
<g>
	<path class="st0" d="M38.6,19.6l-0.5-1.9c1.9-0.5,3.9-0.8,5.9-0.8v2C42.1,18.9,40.4,19.1,38.6,19.6z"/>
</g>
<g>
	<path class="st0" d="M8.8,30.1l-0.3-2l12.1-1.7c1-0.1,2.1-0.2,3.1-0.2l0,0c2,0,3.9,0.3,5.8,0.8L29,28.9c-1.7-0.5-3.5-0.7-5.3-0.7
		l0,0c-1,0-1.9,0.1-2.9,0.2L8.8,30.1z"/>
</g>
<g>
	<path class="st0" d="M38.6,28.9L38.1,27c1.9-0.5,3.9-0.8,5.8-0.8l0,0v2C42.1,28.2,40.3,28.4,38.6,28.9z"/>
</g>
<g>
	<path class="st0" d="M8.8,39.5l-0.3-2l12.1-1.7c1-0.1,2.1-0.2,3.2-0.2c2,0,3.9,0.3,5.8,0.8l-0.5,1.9c-1.7-0.5-3.5-0.7-5.3-0.7
		c-1,0-1.9,0.1-2.9,0.2L8.8,39.5z"/>
</g>
<g>
	<path class="st0" d="M38.6,38.2l-0.5-1.9c1.9-0.5,3.9-0.8,5.8-0.8l0,0v2C42.1,37.5,40.4,37.8,38.6,38.2z"/>
</g>
<g>
	<path class="st0" d="M64.1,50.4L49,46.2c-2.9-0.8-6-0.7-8.9,0.2l-6.6,2l-5.7-1.9c-2.9-1-6.1-1.1-9.1-0.3L2.8,50.4L3.1,3l17.5-2.5
		c1-0.1,2.1-0.2,3.1-0.2c3.4,0,7,0.8,10.1,2.4c1.2-0.6,2.4-1.1,3.7-1.5c1.9-0.6,3.8-0.9,5.8-1h0.6C45,0.2,46,0.3,47,0.4L50.3,1L50,3
		l-3.3-0.5c-0.9-0.1-1.9-0.2-2.8-0.2h-0.6c-1.8,0-3.5,0.3-5.2,0.9c-1.2,0.4-2.4,0.9-3.6,1.4L33.9,5l-0.8-0.4
		c-2.9-1.5-6.1-2.3-9.4-2.3l0,0c-0.9,0-1.9,0.1-2.8,0.2L5.1,4.8l-0.3,43l13.4-3.5c3.4-0.9,6.9-0.8,10.2,0.3l5.1,1.7l6-1.8
		c3.3-1,6.7-1.1,10-0.2l12.7,3.5l0.3-43l-4.8-0.7l0.3-2L64.5,3L64.1,50.4z"/>
</g>
<g>
	<polygon class="st0" points="67.3,56.1 36.5,54.3 30.7,54.3 0,56.1 0,9.8 3.6,9.8 3.6,11.8 2,11.8 2,53.9 30.6,52.3 36.6,52.3 
		65.3,53.9 65.3,11.8 63.7,11.8 63.7,9.8 67.3,9.8 	"/>
</g>
<g>
	<path class="st0" d="M62,52.4C62,52.4,61.9,52.4,62,52.4l-0.8-0.1c-0.3,0-0.5-0.3-0.4-0.6c0-0.3,0.3-0.5,0.6-0.4h0.3
		c0.1-0.1,0.2-0.2,0.4-0.2c0.3,0,0.5,0.2,0.5,0.5v0.2c0,0.1-0.1,0.3-0.2,0.4C62.2,52.3,62.1,52.4,62,52.4z M6.2,52.1
		c-0.2,0-0.5-0.2-0.5-0.4c0-0.3,0.1-0.5,0.4-0.6l1-0.2c0.3-0.1,0.5,0.1,0.6,0.4c0,0.3-0.1,0.5-0.4,0.6L6.2,52.1
		C6.3,52.1,6.3,52.1,6.2,52.1z M58.3,51.8C58.3,51.8,58.2,51.8,58.3,51.8l-1.1-0.2c-0.3,0-0.5-0.3-0.4-0.6c0-0.3,0.3-0.5,0.6-0.4
		l1,0.2c0.3,0,0.5,0.3,0.4,0.6C58.7,51.6,58.5,51.8,58.3,51.8z M10.2,51.5c-0.2,0-0.5-0.2-0.5-0.4c0-0.3,0.1-0.5,0.4-0.6l1-0.2
		c0.3,0,0.5,0.1,0.6,0.4c0,0.3-0.1,0.5-0.4,0.6L10.2,51.5L10.2,51.5z M33.7,51.1c-0.2,0-0.4-0.1-0.5-0.3c-0.1-0.3,0-0.5,0.3-0.7
		l0.1-0.1c0.3-0.1,0.5-0.2,0.8-0.3s0.5,0,0.6,0.3s0,0.5-0.3,0.6s-0.5,0.2-0.8,0.3L33.8,51C33.8,51.1,33.8,51.1,33.7,51.1z
		 M54.3,51.1L54.3,51.1l-1.1-0.2c-0.3,0-0.5-0.3-0.4-0.6c0-0.3,0.3-0.5,0.6-0.4l1,0.2c0.3,0,0.5,0.3,0.4,0.6
		C54.8,50.9,54.6,51.1,54.3,51.1z M14.1,50.8c-0.2,0-0.5-0.2-0.5-0.4c0-0.3,0.1-0.5,0.4-0.6l1-0.2c0.3-0.1,0.5,0.1,0.6,0.4
		c0,0.3-0.1,0.5-0.4,0.6L14.1,50.8C14.2,50.8,14.2,50.8,14.1,50.8z M50.4,50.5C50.4,50.5,50.3,50.5,50.4,50.5l-1.1-0.2
		c-0.3,0-0.5-0.3-0.4-0.6s0.3-0.5,0.6-0.4l1,0.2c0.3,0,0.5,0.3,0.4,0.6C50.8,50.3,50.6,50.5,50.4,50.5z M30.9,50.5
		c-0.1,0-0.1,0-0.2,0c-0.3-0.1-0.6-0.2-0.9-0.3s-0.4-0.3-0.3-0.6s0.4-0.4,0.6-0.3c0.3,0.1,0.7,0.2,1,0.3s0.4,0.4,0.3,0.6
		C31.3,50.3,31.2,50.5,30.9,50.5z M5.3,50.3c-0.3,0-0.5-0.2-0.5-0.5v-1c0-0.3,0.2-0.5,0.5-0.5s0.5,0.2,0.5,0.5v1
		C5.8,50,5.5,50.3,5.3,50.3z M18.1,50.2c-0.2,0-0.5-0.2-0.5-0.4c0-0.3,0.1-0.5,0.4-0.6l1-0.2c0.3-0.1,0.5,0.1,0.6,0.4
		c0,0.3-0.1,0.5-0.4,0.6L18.1,50.2L18.1,50.2z M37.5,49.9c-0.2,0-0.4-0.2-0.5-0.4c-0.1-0.3,0.1-0.5,0.4-0.6c0.3-0.1,0.7-0.1,1-0.2
		c0.3,0,0.5,0.1,0.6,0.4c0,0.3-0.1,0.5-0.4,0.6C38.3,49.7,38,49.8,37.5,49.9L37.5,49.9z M46.4,49.8L46.4,49.8c-0.4,0-0.7-0.1-1-0.1
		s-0.5-0.3-0.4-0.6s0.3-0.5,0.6-0.4c0.3,0,0.7,0.1,1,0.1s0.5,0.3,0.4,0.6C46.9,49.6,46.7,49.8,46.4,49.8z M22.1,49.6
		c-0.3,0-0.5-0.2-0.5-0.5s0.2-0.5,0.5-0.5s0.7-0.1,1-0.1s0.5,0.2,0.5,0.5s-0.2,0.5-0.5,0.5C22.8,49.6,22.4,49.6,22.1,49.6L22.1,49.6
		z M27,49.6L27,49.6c-0.4,0-0.7-0.1-1-0.1s-0.5-0.3-0.5-0.5c0-0.3,0.3-0.5,0.5-0.5c0.3,0,0.7,0,1,0.1c0.3,0,0.5,0.3,0.4,0.6
		C27.5,49.4,27.3,49.6,27,49.6z M42.5,49.5L42.5,49.5h-1c-0.3,0-0.5-0.2-0.5-0.5s0.2-0.5,0.5-0.5l0,0h1c0.3,0,0.5,0.2,0.5,0.5
		S42.7,49.5,42.5,49.5z"/>
</g>
</svg>
