<?xml version="1.0" encoding="utf-8"?>
<!-- Generator: Adobe Illustrator 25.2.1, SVG Export Plug-In . SVG Version: 6.00 Build 0)  -->
<svg version="1.1" id="Layer_1" xmlns="http://www.w3.org/2000/svg" xmlns:xlink="http://www.w3.org/1999/xlink" x="0px" y="0px"
	 viewBox="0 0 29 33" style="enable-background:new 0 0 29 33;" xml:space="preserve">
<style type="text/css">
	.st0{fill-rule:evenodd;clip-rule:evenodd;fill:#FFFFFF;}
</style>
<path class="st0" d="M21.8,11.2c-0.5-0.6-1-1.2-1.7-1.6c-0.6-0.4-1.3-0.8-2-1c-0.7-0.2-1.5-0.3-2.2-0.3c-1,0-2.1,0.2-3,0.7
	c-0.9,0.4-1.8,1.1-2.4,1.8c-0.7,0.8-1.3,1.8-1.6,2.8c-0.4,1.1-0.6,2.4-0.6,3.6c0,1,0.2,2,0.6,3c0.4,0.9,0.9,1.7,1.6,2.4
	c0.7,0.7,1.5,1.3,2.4,1.6c1.6,0.7,3.5,0.8,5.2,0.3c0.7-0.2,1.4-0.5,2-0.9c0.6-0.4,1.2-0.9,1.6-1.4c0.5-0.6,0.9-1.2,1.2-1.9l5.7,5.7
	c-0.7,1-1.5,1.9-2.5,2.8c-0.9,0.8-1.9,1.5-3,2.1c-1.1,0.6-2.2,1-3.4,1.3c-1.2,0.3-2.5,0.4-3.7,0.4c-2.1,0-4.1-0.4-6-1.2
	c-3.7-1.6-6.7-4.5-8.3-8.2c-0.8-1.9-1.2-3.9-1.2-6c0-2.2,0.4-4.4,1.2-6.5c0.8-2,1.9-3.7,3.3-5.3C6.3,3.8,8,2.6,9.9,1.8
	c1.9-0.9,3.9-1.3,6-1.3c1.3,0,2.5,0.2,3.7,0.5c2.5,0.6,4.7,1.9,6.5,3.7c0.9,0.9,1.8,1.9,2.4,3.1l-5.7,5.7
	C22.7,12.6,22.3,11.9,21.8,11.2L21.8,11.2z"/>
</svg>
