<?xml version="1.0" encoding="utf-8"?>
<!-- Generator: Adobe Illustrator 25.2.1, SVG Export Plug-In . SVG Version: 6.00 Build 0)  -->
<svg version="1.1" id="Layer_2_1_" xmlns="http://www.w3.org/2000/svg" xmlns:xlink="http://www.w3.org/1999/xlink" x="0px" y="0px"
	 viewBox="0 0 83.7 47.3" style="enable-background:new 0 0 83.7 47.3;" xml:space="preserve">
<style type="text/css">
	.st0{fill:#FFFFFF;}
</style>
<g>
	<path class="st0" d="M82.5,34.3c-0.8,2.8-2.6,5.2-5.2,6.7c-2.4,1.4-5.2,1.8-7.9,1.2c-5.9,4.6-14,5.3-20.5,1.7
		c-3.7,2.2-7.9,3.3-12.1,3.3c-5.4,0-10.7-1.8-15.1-5.4c-2,0.9-4.1,1.3-6.2,1.3c-4.3,0-8.2-1.8-11-4.6S0,31.8,0,27.6
		C0,19.1,7,12,15.6,12h0.6c1.7-3,4-5.6,6.7-7.6C28,0.8,34.2-0.7,40.4,0.3c6,1,11.3,4.1,15,9c0.8-0.1,1.7-0.2,2.6-0.2
		c3.8,0,7.4,1.2,10.4,3.2c3,2.1,5.4,5,6.8,8.6c2.6,0.8,4.8,2.6,6.2,5C82.8,28.5,83.2,31.4,82.5,34.3z"/>
</g>
</svg>
