<?xml version="1.0" encoding="utf-8"?>
<!-- Generator: Adobe Illustrator 25.2.1, SVG Export Plug-In . SVG Version: 6.00 Build 0)  -->
<svg version="1.1" id="Layer_1" xmlns="http://www.w3.org/2000/svg" xmlns:xlink="http://www.w3.org/1999/xlink" x="0px" y="0px"
	 viewBox="0 0 85 64.4" style="enable-background:new 0 0 85 64.4;" xml:space="preserve">
<style type="text/css">
	.st0{fill:#FFFFFF;}
</style>
<g>
	<path class="st0" d="M27.9,2c-0.9,0-1.6,0.3-2.1,0.9S25,4.3,25,5.3c0,0.7,0,1.3,0.1,1.9s0.2,1.2,0.3,1.8c0.1,0.6,0.2,1.2,0.3,1.7
		c0.1,0.6,0.1,1.1,0.1,1.7c0,0.4-0.1,0.8-0.2,1.2s-0.3,0.7-0.6,1s-0.5,0.6-0.8,0.8s-0.7,0.4-1.1,0.5c0.4,0.1,0.7,0.3,1.1,0.5
		s0.6,0.5,0.8,0.8s0.4,0.6,0.6,1c0.1,0.4,0.2,0.8,0.2,1.2c0,0.6,0,1.2-0.1,1.7c-0.1,0.6-0.2,1.1-0.3,1.7c-0.1,0.6-0.2,1.2-0.3,1.8
		C25,25.2,25,25.8,25,26.5c0,1,0.3,1.8,0.8,2.4s1.2,0.9,2.1,0.9h0.4c0.1,0,0.3,0.1,0.5,0.2s0.2,0.3,0.2,0.5v1.4h-1
		c-0.9,0-1.8-0.1-2.5-0.4s-1.3-0.7-1.8-1.1c-0.5-0.5-0.8-1.1-1.1-1.8c-0.2-0.7-0.4-1.4-0.4-2.2c0-0.6,0-1.2,0.1-1.8
		c0.1-0.6,0.2-1.2,0.3-1.7s0.2-1.2,0.3-1.7C23,20.6,23,20,23,19.5c0-0.7-0.2-1.3-0.6-1.8s-1-0.7-1.8-0.7v-2c0.8,0,1.4-0.2,1.8-0.7
		s0.6-1.1,0.6-1.8c0-0.6,0-1.2-0.1-1.7c-0.1-0.6-0.2-1.1-0.3-1.7c-0.1-0.6-0.2-1.1-0.3-1.7s-0.1-1.2-0.1-1.8c0-0.8,0.1-1.5,0.4-2.2
		c0.2-0.7,0.6-1.3,1.1-1.8s1.1-0.9,1.8-1.1S27.1,0,28,0h1v1.4c0,0.2-0.1,0.4-0.2,0.5C28.6,2,28.4,2,28.3,2H27.9z"/>
	<path class="st0" d="M32.1,24.9c0-0.3,0.1-0.6,0.2-0.9c0.1-0.3,0.3-0.5,0.5-0.7s0.4-0.4,0.7-0.5s0.6-0.2,0.9-0.2s0.6,0.1,0.9,0.2
		c0.3,0.1,0.5,0.3,0.7,0.5s0.4,0.4,0.5,0.7c0.1,0.3,0.2,0.6,0.2,0.9s-0.1,0.6-0.2,0.9c-0.1,0.3-0.3,0.5-0.5,0.7s-0.4,0.4-0.7,0.5
		s-0.6,0.2-0.9,0.2s-0.6-0.1-0.9-0.2c-0.3-0.1-0.5-0.3-0.7-0.5s-0.3-0.4-0.5-0.7C32.1,25.5,32.1,25.2,32.1,24.9z"/>
	<path class="st0" d="M40.4,24.9c0-0.3,0.1-0.6,0.2-0.9c0.1-0.3,0.3-0.5,0.5-0.7s0.4-0.4,0.7-0.5s0.6-0.2,0.9-0.2
		c0.3,0,0.6,0.1,0.9,0.2c0.3,0.1,0.5,0.3,0.7,0.5s0.4,0.4,0.5,0.7s0.2,0.6,0.2,0.9s-0.1,0.6-0.2,0.9s-0.3,0.5-0.5,0.7
		s-0.4,0.4-0.7,0.5s-0.6,0.2-0.9,0.2c-0.3,0-0.6-0.1-0.9-0.2c-0.3-0.1-0.5-0.3-0.7-0.5s-0.3-0.4-0.5-0.7
		C40.4,25.5,40.4,25.2,40.4,24.9z"/>
	<path class="st0" d="M48.6,24.9c0-0.3,0.1-0.6,0.2-0.9s0.3-0.5,0.5-0.7s0.4-0.4,0.7-0.5s0.6-0.2,0.9-0.2c0.3,0,0.6,0.1,0.9,0.2
		c0.3,0.1,0.5,0.3,0.7,0.5s0.4,0.4,0.5,0.7s0.2,0.6,0.2,0.9s-0.1,0.6-0.2,0.9s-0.3,0.5-0.5,0.7s-0.4,0.4-0.7,0.5s-0.6,0.2-0.9,0.2
		c-0.3,0-0.6-0.1-0.9-0.2c-0.3-0.1-0.5-0.3-0.7-0.5s-0.3-0.4-0.5-0.7S48.6,25.2,48.6,24.9z"/>
	<path class="st0" d="M64.3,16.9c-0.8,0-1.4,0.2-1.8,0.7c-0.4,0.5-0.6,1.1-0.6,1.8c0,0.6,0,1.2,0.1,1.7s0.2,1.1,0.3,1.7
		s0.2,1.2,0.3,1.7c0.1,0.6,0.1,1.2,0.1,1.8c0,0.8-0.1,1.5-0.4,2.2c-0.2,0.7-0.6,1.3-1.1,1.8s-1.1,0.9-1.8,1.1
		c-0.7,0.3-1.5,0.4-2.5,0.4H56v-1.4c0-0.2,0.1-0.4,0.3-0.5s0.3-0.2,0.4-0.2h0.4c0.9,0,1.6-0.3,2.1-0.9s0.8-1.4,0.8-2.4
		c0-0.7,0-1.3-0.1-1.9s-0.2-1.2-0.3-1.8s-0.2-1.2-0.3-1.7s-0.1-1.2-0.1-1.7c0-0.4,0.1-0.8,0.2-1.2c0.1-0.4,0.3-0.7,0.6-1
		c0.2-0.3,0.5-0.6,0.8-0.8c0.3-0.2,0.7-0.4,1.1-0.5c-0.4-0.1-0.7-0.3-1.1-0.5c-0.3-0.2-0.6-0.5-0.8-0.8s-0.4-0.6-0.6-1
		c-0.1-0.4-0.2-0.8-0.2-1.2c0-0.6,0-1.2,0.1-1.7s0.2-1.1,0.3-1.7c0.1-0.6,0.2-1.2,0.3-1.8C60,6.6,60.1,6,60.1,5.3
		c0-1-0.3-1.8-0.8-2.4S58.1,2,57.2,2h-0.4c-0.1,0-0.3-0.1-0.4-0.2c-0.2-0.1-0.3-0.3-0.3-0.5V0H57c0.9,0,1.8,0.1,2.5,0.4
		s1.3,0.6,1.8,1.1s0.8,1.1,1.1,1.8c0.2,0.7,0.4,1.4,0.4,2.2c0,0.6,0,1.2-0.1,1.8S62.5,8.5,62.4,9c-0.1,0.6-0.2,1.1-0.3,1.7
		S62,11.8,62,12.4c0,0.7,0.2,1.4,0.6,1.8s1,0.7,1.8,0.7L64.3,16.9L64.3,16.9z"/>
</g>
<g>
	<polygon class="st0" points="42.5,64.4 42.1,64.3 7.5,48.8 7.5,36.6 9.5,36.6 9.5,47.5 42.6,62.3 75.9,48 75.9,37.5 77.9,37.5 
		77.9,49.3 	"/>
</g>
<g>
	<path class="st0" d="M43.5,62.6h-2V47l-4.6,3.8L0,34.2l6.9-6.6l36.6,15.9V62.6z M3.5,33.6l33.1,14.8l4.6-3.7L7.3,30L3.5,33.6z"/>
</g>
<g>
	<path class="st0" d="M7.1,29.1c-0.2,0-0.4-0.1-0.5-0.3c-0.1-0.3,0-0.5,0.2-0.7l0.9-0.4c0.3-0.1,0.5,0,0.7,0.2
		c0.1,0.3,0,0.5-0.2,0.7L7.3,29C7.3,29.1,7.2,29.1,7.1,29.1z M10.8,27.5c-0.2,0-0.4-0.1-0.5-0.3c-0.1-0.3,0-0.5,0.2-0.7l0.9-0.4
		c0.2-0.1,0.5,0,0.7,0.2c0.1,0.3,0,0.5-0.2,0.7L11,27.4C10.9,27.5,10.8,27.5,10.8,27.5z M14.4,25.8c-0.2,0-0.4-0.1-0.5-0.3
		c-0.1-0.3,0-0.5,0.2-0.7l0.9-0.4c0.2-0.1,0.5,0,0.7,0.2c0.1,0.3,0,0.5-0.2,0.7l-0.9,0.4C14.5,25.8,14.5,25.8,14.4,25.8z M18,24.1
		c-0.2,0-0.4-0.1-0.5-0.3c-0.1-0.3,0-0.5,0.2-0.7l0.9-0.4c0.3-0.1,0.5,0,0.7,0.2c0.1,0.3,0,0.5-0.2,0.7L18.2,24
		C18.2,24.1,18.1,24.1,18,24.1z"/>
</g>
<g>
	<path class="st0" d="M76.9,30c-0.1,0-0.1,0-0.2,0l-0.9-0.4c-0.2-0.1-0.4-0.4-0.2-0.7c0.1-0.2,0.4-0.4,0.7-0.2l0.9,0.4
		c0.2,0.1,0.4,0.4,0.2,0.7C77.2,29.9,77,30,76.9,30z M73.2,28.3c-0.1,0-0.1,0-0.2,0l-0.9-0.4c-0.2-0.1-0.4-0.4-0.2-0.7
		c0.1-0.3,0.4-0.4,0.7-0.2l0.9,0.4c0.2,0.1,0.4,0.4,0.2,0.7C73.6,28.2,73.4,28.3,73.2,28.3z M69.6,26.6c-0.1,0-0.1,0-0.2,0l-0.9-0.4
		c-0.2-0.1-0.4-0.4-0.2-0.7c0.1-0.3,0.4-0.4,0.7-0.2l0.9,0.4c0.2,0.1,0.4,0.4,0.2,0.7C70,26.5,69.8,26.6,69.6,26.6z"/>
</g>
<g>
	<path class="st0" d="M49.5,51.2L40.6,44L77,28.5l8,6.5L49.5,51.2z M44.5,44.5l5.4,4.4l31.4-14.3l-4.6-3.7L44.5,44.5z"/>
</g>
</svg>
