<?xml version="1.0" encoding="utf-8"?>
<!-- Generator: Adobe Illustrator 25.2.1, SVG Export Plug-In . SVG Version: 6.00 Build 0)  -->
<svg version="1.1" id="Layer_1" xmlns="http://www.w3.org/2000/svg" xmlns:xlink="http://www.w3.org/1999/xlink" x="0px" y="0px"
	 viewBox="0 0 1746.5 255.3" style="enable-background:new 0 0 1746.5 255.3;" xml:space="preserve">
<style type="text/css">
	.st0{fill:#00CCFF;}
	.st1{fill:#FA582D;}
</style>
<g>
	<path d="M1256.3,98.5c-27.7-4.1-33.8-7.2-33.8-13.4c0-6.2,7.8-11.4,26.3-11.4c14.5,0,29.5,3.6,42.7,9c3.4,1.3,6.5,2.8,9.6,4.2V59.7
		c-0.2-0.1-0.4-0.2-0.7-0.3c-14.5-6.2-29.9-9.5-50.1-9.5c-36.1,0-59.9,16.1-59.9,36.7c0,22.9,19.3,31,57.3,36.4
		c26.7,3.8,33.3,6.7,33.3,13.4c0,7.5-9.8,12.4-31.5,12.4c-14,0-30.6-3.9-44.9-9.6c-3.5-1.4-8.2-3.6-12-5.6v27.2
		c1.1,0.5,2.3,1,3.1,1.3c16.1,6.5,34.4,10.5,55.3,10.5c35.1,0,62.2-14.2,62.2-37.5C1313.2,112.2,1295.1,104,1256.3,98.5z"/>
	<path d="M814.3,52.3c32.8,0,51.2,15.6,51.2,40c0,25.9-20.4,40.9-52.8,40.9h-35.6v37h-30.8V52.3H814.3z M777.1,109.5h31.2
		c20,0,26.6-6.4,26.6-16.6c0-9.9-7.3-16.6-25.1-16.6h-32.6L777.1,109.5L777.1,109.5z"/>
	<path d="M948,170.3h-30.8v-118h77.2c32.4,0,49.6,14.3,49.6,38.6c0,19.1-12.6,31.7-31,36.7l36.8,42.7h-35.2l-34.2-40.4H948V170.3z
		 M948,107h39c17.2,0,25.9-5.1,25.9-15.6c0-9.9-7.1-15.4-24.4-15.4h-40.4v31H948z"/>
	<path d="M1134.9,52.3v117.9h-31V52.3H1134.9z"/>
	<path d="M1406.9,52.3l41.3,80.2h0.5l40.9-80.2h45v117.9h-30.5v-88h-0.4l-45.5,88.2h-22l-45.5-88.2h-0.3v88h-28.5V52.3H1406.9z"/>
	<path d="M1691.4,149.2h-67.7l-10.4,21.1h-32.1l60-118.7h33.6l60.2,118.7h-33.3L1691.4,149.2z M1634.4,127.6h46.4l-23-46.9h-0.4
		L1634.4,127.6z"/>
	<polygon class="st0" points="607.9,170.3 607.9,52.1 669.6,170.3 	"/>
	<polygon class="st0" points="607.9,52.1 546.2,170.3 607.9,170.3 607.9,255.3 480.3,127.7 545.6,62.4 555.9,52.1 607.9,0.1 	"/>
	<g>
		<path d="M1738.4,63.4V63c0-2.5-1.9-4.3-5.3-4.3h-5.9v13.5h2.8v-4.5h3.1l2.3,4.6h3.1l-2.9-5.4C1737.4,66.4,1738.4,65.1,1738.4,63.4
			 M1730,61.2h3.1c1.8,0,2.5,0.6,2.5,1.9v0.1c0,1.2-0.7,1.9-2.5,1.9h-3.1V61.2z"/>
		<path d="M1732.5,51.5c-7.9,0-14,6-14,14s6,14,14,14c7.9,0,14-6,14-14S1740.5,51.5,1732.5,51.5 M1732.5,77.6
			c-6.9,0-11.9-5-11.9-12.1s5-12.1,11.9-12.1s11.9,5,11.9,12.1C1744.5,72.6,1739.4,77.6,1732.5,77.6"/>
	</g>
</g>
<g>
	<polygon class="st1" points="294.5,62.7 250.2,18.4 205.9,62.7 227.9,84.6 116.9,195.5 161.2,239.8 205.5,195.5 183.4,173.5 	"/>
	
		<rect x="49.8" y="64.7" transform="matrix(0.7074 -0.7068 0.7068 0.7074 -30.3257 118.7678)" class="st1" width="156.9" height="62.6"/>
	
		<rect x="204.6" y="130.9" transform="matrix(0.7074 -0.7068 0.7068 0.7074 -31.8223 247.5466)" class="st1" width="156.9" height="62.6"/>
</g>
<rect x="419.6" width="1.8" height="252.4"/>
</svg>
