<?xml version="1.0" encoding="utf-8"?>
<!-- Generator: Adobe Illustrator 25.2.1, SVG Export Plug-In . SVG Version: 6.00 Build 0)  -->
<svg version="1.1" id="Layer_2_1_" xmlns="http://www.w3.org/2000/svg" xmlns:xlink="http://www.w3.org/1999/xlink" x="0px" y="0px"
	 viewBox="0 0 66.7 68.5" style="enable-background:new 0 0 66.7 68.5;" xml:space="preserve">
<style type="text/css">
	.st0{fill:#00C0E8;}
</style>
<g>
	<path class="st0" d="M16.6,17.8H1.2v-2h14.4V1.6h2v15.1C17.6,17.3,17.2,17.8,16.6,17.8z"/>
</g>
<g>
	<path class="st0" d="M51,68.5H1c-0.6,0-1-0.4-1-1V16.8c0-0.3,0.1-0.5,0.3-0.7L15.9,0.5c0.2-0.2,0.4-0.3,0.7-0.3L51,0
		c0.3,0,0.5,0.1,0.7,0.3S52,0.7,52,1v17.8h-2V2L17,2.2l-15,15v49.3h48V57h2v10.6C52,68.1,51.5,68.5,51,68.5z"/>
</g>
<g>
	<rect x="7.7" y="26" class="st0" width="18" height="2"/>
</g>
<g>
	<rect x="7.7" y="33" class="st0" width="18" height="2"/>
</g>
<g>
	<rect x="7.7" y="40" class="st0" width="18" height="2"/>
</g>
<g>
	<path class="st0" d="M28.9,61.8c-0.3,0-0.5-0.1-0.7-0.3L22.7,56c-0.4-0.4-0.4-1,0-1.4l18.4-18.4c0.4-0.4,1-0.4,1.4,0l5.5,5.5
		c0.2,0.2,0.3,0.4,0.3,0.7S48.2,43,48,43.1L29.6,61.5C29.4,61.7,29.2,61.8,28.9,61.8z M24.8,55.3l4.1,4.1l17-17l-4.1-4.1L24.8,55.3z
		"/>
</g>
<g>
	<path class="st0" d="M53.4,53.8c-0.3,0-0.5-0.1-0.7-0.3L47.2,48c-0.2-0.2-0.3-0.4-0.3-0.7s0.1-0.5,0.3-0.7l1.4-1.4l-9.8-9.8
		l-1.4,1.4c-0.4,0.4-1,0.4-1.4,0l-5.5-5.5c-0.2-0.2-0.3-0.4-0.3-0.7c0-0.3,0.1-0.5,0.3-0.7l12.3-12.3c0.4-0.4,1-0.4,1.4,0l5.5,5.5
		c0.4,0.4,0.4,1,0,1.4L48.2,26l9.8,9.8l1.4-1.4c0.4-0.4,1-0.4,1.4,0l5.5,5.5c0.4,0.4,0.4,1,0,1.4L54.1,53.6
		C53.9,53.8,53.7,53.8,53.4,53.8z M49.3,47.3l4.1,4.1l10.8-10.8l-4.1-4.1l-1.4,1.4c-0.4,0.4-1,0.4-1.4,0L46.1,26.7
		c-0.4-0.4-0.4-1,0-1.4l1.4-1.4l-4.1-4.1L32.6,30.6l4.1,4.1l1.4-1.4c0.4-0.4,1-0.4,1.4,0l11.2,11.2c0.2,0.2,0.3,0.4,0.3,0.7
		s-0.1,0.5-0.3,0.7L49.3,47.3z"/>
</g>
<g>
	<path class="st0" d="M38.9,34.5c-0.1,0-0.3,0-0.3-0.1c-0.2-0.2-0.2-0.5,0-0.7l0.3-0.4c0.2-0.2,0.5-0.2,0.7,0s0.2,0.5,0,0.7
		l-0.3,0.4C39.1,34.5,39,34.5,38.9,34.5z"/>
</g>
<g>
	<path class="st0" d="M41.2,32.2c-0.1,0-0.3,0-0.4-0.1c-0.2-0.2-0.2-0.5,0-0.7l0.7-0.7c0.2-0.2,0.5-0.2,0.7,0s0.2,0.5,0,0.7L41.5,32
		C41.4,32.1,41.3,32.2,41.2,32.2z M43.8,29.5c-0.1,0-0.3,0-0.4-0.1c-0.2-0.2-0.2-0.5,0-0.7l0.7-0.7c0.2-0.2,0.5-0.2,0.7,0
		s0.2,0.5,0,0.7l-0.7,0.7C44.1,29.5,44,29.5,43.8,29.5z"/>
</g>
<g>
	<path class="st0" d="M46.5,26.9c-0.1,0-0.3-0.1-0.4-0.2c-0.2-0.2-0.2-0.5,0-0.7l0.4-0.4c0.2-0.2,0.5-0.2,0.7,0s0.2,0.5,0,0.7
		l-0.4,0.4C46.7,26.8,46.6,26.9,46.5,26.9z"/>
</g>
<g>
	<path class="st0" d="M49.9,45.5c-0.1,0-0.3,0-0.4-0.1c-0.2-0.2-0.2-0.5,0-0.7l0.4-0.4c0.2-0.2,0.5-0.2,0.7,0s0.2,0.5,0,0.7
		l-0.4,0.4C50.1,45.5,50,45.5,49.9,45.5z"/>
</g>
<g>
	<path class="st0" d="M52.2,43.2c-0.1,0-0.3,0-0.4-0.1c-0.2-0.2-0.2-0.5,0-0.7l0.7-0.7c0.2-0.2,0.5-0.2,0.7,0s0.2,0.5,0,0.7
		l-0.7,0.7C52.5,43.2,52.4,43.2,52.2,43.2z M54.9,40.6c-0.1,0-0.3,0-0.4-0.1c-0.2-0.2-0.2-0.5,0-0.7l0.7-0.7c0.2-0.2,0.5-0.2,0.7,0
		s0.2,0.5,0,0.7l-0.7,0.7C55.1,40.5,55,40.6,54.9,40.6z"/>
</g>
<g>
	<path class="st0" d="M57.5,37.9c-0.1,0-0.3-0.1-0.4-0.2c-0.2-0.2-0.2-0.5,0-0.7l0.4-0.3c0.2-0.2,0.5-0.2,0.7,0s0.2,0.5,0,0.7
		l-0.4,0.3C57.8,37.9,57.6,37.9,57.5,37.9z"/>
</g>
</svg>
