<?xml version="1.0" encoding="utf-8"?>
<!-- Generator: Adobe Illustrator 25.2.1, SVG Export Plug-In . SVG Version: 6.00 Build 0)  -->
<svg version="1.1" id="Layer_1" xmlns="http://www.w3.org/2000/svg" xmlns:xlink="http://www.w3.org/1999/xlink" x="0px" y="0px"
	 viewBox="0 0 1266.2 255.2" style="enable-background:new 0 0 1266.2 255.2;" xml:space="preserve">
<style type="text/css">
	.st0{fill:#FFFFFF;}
	.st1{fill:#00CCFF;}
</style>
<g>
	<path class="st0" d="M775.9,98.8c-27.7-4.1-33.8-7.2-33.8-13.4c0-6.2,7.8-11.4,26.3-11.4c14.5,0,29.5,3.6,42.7,9
		c3.4,1.3,6.5,2.8,9.6,4.2V60c-0.2-0.1-0.4-0.2-0.7-0.3c-14.5-6.2-29.9-9.5-50.1-9.5c-36.1,0-59.9,16.1-59.9,36.7
		c0,22.9,19.3,31,57.3,36.4c26.7,3.8,33.3,6.7,33.3,13.4c0,7.5-9.8,12.4-31.5,12.4c-14,0-30.6-3.9-44.9-9.6c-3.5-1.4-8.2-3.6-12-5.6
		v27.2c1.1,0.5,2.3,1,3.1,1.3c16.1,6.5,34.4,10.5,55.3,10.5c35.1,0,62.2-14.2,62.2-37.5C832.8,112.5,814.7,104.3,775.9,98.8z"/>
	<path class="st0" d="M333.9,52.6c32.8,0,51.2,15.6,51.2,40c0,25.9-20.4,40.9-52.8,40.9h-35.6v37h-30.8V52.6H333.9z M296.7,109.8
		h31.2c20,0,26.6-6.4,26.6-16.6c0-9.9-7.3-16.6-25.1-16.6h-32.6V109.8z"/>
	<path class="st0" d="M467.6,170.6h-30.8V52.6H514c32.4,0,49.6,14.3,49.6,38.6c0,19.1-12.6,31.7-31,36.7l36.8,42.7h-35.2L500,130.2
		h-32.4V170.6z M467.6,107.3h39c17.2,0,25.9-5.1,25.9-15.6c0-9.9-7.1-15.4-24.4-15.4h-40.4V107.3z"/>
	<path class="st0" d="M654.5,52.6v117.9h-31V52.6H654.5z"/>
	<path class="st0" d="M926.5,52.6l41.3,80.2h0.5l40.9-80.2h45v117.9h-30.5v-88h-0.4l-45.5,88.2h-22l-45.5-88.2H910v88h-28.5V52.6
		H926.5z"/>
	<path class="st0" d="M1211,149.5h-67.7l-10.4,21.1h-32.1l60-118.7h33.6l60.2,118.7h-33.3L1211,149.5z M1154,127.9h46.4l-23-46.9
		h-0.4L1154,127.9z"/>
	<polygon class="st1" points="127.5,170.6 127.5,52.4 189.2,170.6 	"/>
	<polygon class="st1" points="127.5,52.4 65.8,170.6 127.5,170.6 127.5,255.6 -0.1,128 65.2,62.7 75.5,52.4 127.5,0.4 	"/>
	<g>
		<path class="st0" d="M1258,63.7v-0.4c0-2.5-1.9-4.3-5.3-4.3h-5.9v13.5h2.8V68h3.1l2.3,4.6h3.1l-2.9-5.4
			C1257,66.7,1258,65.4,1258,63.7 M1249.6,61.5h3.1c1.8,0,2.5,0.6,2.5,1.9v0.1c0,1.2-0.7,1.9-2.5,1.9h-3.1V61.5z"/>
		<path class="st0" d="M1252.1,51.8c-7.9,0-14,6-14,14s6,14,14,14c7.9,0,14-6,14-14S1260.1,51.8,1252.1,51.8 M1252.1,77.9
			c-6.9,0-11.9-5-11.9-12.1c0-7.1,5-12.1,11.9-12.1s11.9,5,11.9,12.1C1264.1,72.9,1259,77.9,1252.1,77.9"/>
	</g>
</g>
</svg>
