<?xml version="1.0" encoding="utf-8"?>
<!-- Generator: Adobe Illustrator 25.2.1, SVG Export Plug-In . SVG Version: 6.00 Build 0)  -->
<svg version="1.1" id="Layer_1" xmlns="http://www.w3.org/2000/svg" xmlns:xlink="http://www.w3.org/1999/xlink" x="0px" y="0px"
	 viewBox="0 0 800 455.9" style="enable-background:new 0 0 800 455.9;" xml:space="preserve">
<style type="text/css">
	.st0{fill:#FFFFFF;}
	.st1{fill:#00C0E8;}
	.st2{fill:#808080;}
</style>
<path class="st0" d="M796.7,331.3c-7.7,27-25.1,50.2-50.2,64.7c-23.2,13.5-50.2,17.4-76.3,11.6c-57,44.4-135.2,51.2-198,16.4
	c-35.7,21.2-76.3,31.9-116.9,31.9c-52.1,0-103.3-17.4-145.8-52.2c-19.3,8.7-39.6,12.6-59.9,12.6c-41.5,0-79-16.9-106-44
	C16.6,345,0,307.6,0,266.6c0-82.1,67.6-150.7,150.7-150.7h5.8c16.4-29,38.6-54.1,64.7-73.4c49.3-34.8,109.1-49.3,169-39.6
	c57.9,9.7,109.1,39.6,144.9,86.9c7.7-1,16.4-1.9,25.1-1.9c36.7,0,71.7,11.4,100.8,31.3c29.1,19.9,52.2,48.4,65.3,82.7
	c25.1,7.7,46.4,25.1,59.9,48.3C799.6,275.3,803.5,303.3,796.7,331.3z"/>
<g>
	<path d="M452.6,250.7c-14.2-2.1-17.4-3.7-17.4-6.9s4-5.9,13.5-5.9c7.4,0,15.1,1.8,21.9,4.6c1.7,0.7,3.3,1.4,4.9,2.2v-14
		c-0.1-0.1-0.2-0.1-0.4-0.2c-7.4-3.2-15.4-4.9-25.7-4.9c-18.5,0-30.8,8.3-30.8,18.8c0,11.8,9.9,15.9,29.4,18.7
		c13.7,2,17.1,3.4,17.1,6.9c0,3.9-5,6.4-16.2,6.4c-7.2,0-15.7-2-23.1-4.9c-1.8-0.7-4.2-1.8-6.2-2.9v14c0.6,0.3,1.2,0.5,1.6,0.7
		c8.3,3.3,17.7,5.4,28.4,5.4c18,0,31.9-7.3,31.9-19.3C481.8,257.7,472.5,253.5,452.6,250.7z"/>
	<path d="M225.7,227c16.8,0,26.3,8,26.3,20.5c0,13.3-10.5,21-27.1,21h-18.3v19h-15.8V227H225.7z M206.6,256.4h16
		c10.3,0,13.7-3.3,13.7-8.5c0-5.1-3.7-8.5-12.9-8.5h-16.7L206.6,256.4L206.6,256.4z"/>
	<path d="M294.3,287.6h-15.8V227h39.6c16.6,0,25.5,7.3,25.5,19.8c0,9.8-6.5,16.3-15.9,18.8l18.9,21.9h-18.1L311,266.8h-16.6V287.6
		L294.3,287.6z M294.3,255.1h20c8.8,0,13.3-2.6,13.3-8c0-5.1-3.6-7.9-12.5-7.9h-20.7L294.3,255.1L294.3,255.1z"/>
	<path d="M390.3,227v60.5h-15.9V227H390.3z"/>
	<path d="M529.9,227l21.2,41.2h0.3l21-41.2h23.1v60.5h-15.7v-45.2h-0.2l-23.3,45.3H545l-23.4-45.3h-0.2v45.2h-14.6V227H529.9z"/>
	<path d="M676,276.7h-34.8l-5.3,10.8h-16.4l30.8-60.9h17.3l30.9,60.9h-17.1L676,276.7z M646.8,265.6h23.8l-11.8-24.1h-0.2
		L646.8,265.6z"/>
	<polygon class="st1" points="119.7,287.6 119.7,226.9 151.4,287.6 	"/>
	<polygon class="st1" points="119.7,226.9 88,287.6 119.7,287.6 119.7,331.2 54.2,265.7 87.7,232.2 93,226.9 119.7,200.2 	"/>
	<g>
		<polygon points="691.5,226.9 696.6,226.9 696.6,228.2 694.9,228.2 694.9,233.2 693.3,233.2 693.3,228.2 691.5,228.2 		"/>
		<path d="M704.2,226.9v6.3h-1.4v-3.6c0-0.1,0-0.1,0-0.2l-1.4,2.8c-0.1,0.1-0.2,0.2-0.3,0.3c-0.1,0.1-0.2,0.1-0.3,0.1h-0.2
			c-0.1,0-0.3-0.1-0.3-0.1c-0.1-0.1-0.2-0.2-0.3-0.3l-1.4-2.8c0,0.1,0,0.2,0,0.2v3.6h-1.4v-6.3h1.3c0.1,0,0.1,0,0.2,0.1
			c0.1,0,0.1,0.1,0.1,0.1c0.1,0.1,0.1,0.1,0.1,0.2l1.6,3.1c0.1,0.1,0.1,0.2,0.2,0.4c0,0.1,0.1,0.1,0.1,0.2c0.1-0.1,0.1-0.1,0.1-0.2
			c0.1-0.1,0.1-0.3,0.2-0.4l1.6-3.1c0.1-0.1,0.1-0.1,0.1-0.2s0.1-0.1,0.2-0.1c0.1,0,0.1,0,0.2-0.1
			C702.9,226.9,704.2,226.9,704.2,226.9z"/>
	</g>
	<g>
		<path class="st2" d="M190.8,312.9h7.2c2.4,0,3.9,1,3.9,2.9c0,1.3-0.5,2.2-2,2.6c1.5,0.6,2.2,1.3,2.2,2.7c0,2.4-1.8,3.2-4.3,3.2
			h-6.9V312.9z M197,317.5c0.9,0,1.3-0.3,1.3-1c0-0.7-0.4-1-1.3-1h-2.9v2H197z M197.2,321.7c1,0,1.4-0.3,1.4-1.1
			c0-0.7-0.4-1.1-1.4-1.1h-3.1v2.2H197.2z"/>
		<path class="st2" d="M208.9,320.7l-5-7.8h3.9l2.8,4.6h0.2l2.9-4.6h3.7l-5,7.8v3.7h-3.4L208.9,320.7L208.9,320.7z"/>
		<path class="st2" d="M226.3,312.9h6.8c2.8,0,4.3,1.6,4.3,4.3c0,3-1.9,4.4-4.6,4.4h-3.1v2.8h-3.4V312.9z M232.5,318.8
			c1.1,0,1.5-0.7,1.5-1.6c0-1-0.5-1.6-1.5-1.6h-2.7v3.2L232.5,318.8L232.5,318.8z"/>
		<path class="st2" d="M242.9,312.9h5.5l4,11.4h-3.6L248,322h-4.7l-0.8,2.4h-3.5L242.9,312.9z M244.2,319.4h3.1l-1.2-3.6h-0.6
			L244.2,319.4z"/>
		<path class="st2" d="M255.5,312.9h3.4v8.5h6.1l-0.2,3h-9.3V312.9z"/>
		<path class="st2" d="M267.2,318.6c0-3.7,2.5-6.1,6.5-6.1s6.5,2.4,6.5,6.1s-2.5,6.1-6.5,6.1C269.7,324.7,267.2,322.3,267.2,318.6z
			 M276.9,318.6c0-2-1.1-3.1-3.1-3.1c-2,0-3.1,1.2-3.1,3.1c0,2,1.1,3.1,3.1,3.1C275.7,321.8,276.9,320.6,276.9,318.6z"/>
		<path class="st2" d="M292.9,312.9h5.5l4,11.4h-3.6L298,322h-4.7l-0.8,2.4h-3.5L292.9,312.9z M294.1,319.4h3.1l-1.2-3.6h-0.6
			L294.1,319.4z"/>
		<path class="st2" d="M305.4,312.9h3.4v8.5h6.1l-0.2,3h-9.3V312.9z"/>
		<path class="st2" d="M319.7,315.9h-4l0.2-2.9H327l0.2,2.9h-4v8.5h-3.4L319.7,315.9L319.7,315.9z"/>
		<path class="st2" d="M329.4,318.6c0-3.7,2.5-6.1,6.5-6.1c4,0,6.5,2.4,6.5,6.1s-2.5,6.1-6.5,6.1
			C331.9,324.7,329.4,322.3,329.4,318.6z M339.1,318.6c0-2-1.1-3.1-3.1-3.1s-3.1,1.2-3.1,3.1c0,2,1.1,3.1,3.1,3.1
			S339.1,320.6,339.1,318.6z"/>
		<path class="st2" d="M352.2,312.9h3.5l4.9,6.5h0.1v-6.5h3.3v11.4h-3.4l-5-6.7h-0.1v6.7h-3.3V312.9z"/>
		<path class="st2" d="M368.1,312.9h10l0.2,2.8h-6.7v1.6h5.3v2.5h-5.3v1.8h6.9l-0.2,2.8h-10.2V312.9z"/>
		<path class="st2" d="M385.1,315.9h-4l0.2-2.9h11.2l0.2,2.9h-4v8.5h-3.4L385.1,315.9L385.1,315.9z"/>
		<path class="st2" d="M395,312.9h3.6l1.8,8h0.2l2.4-8h3.3l2.4,8h0.2l1.8-8h3.5l-3,11.4h-4.5l-2.1-6.9h-0.1l-2.1,6.9H398L395,312.9z
			"/>
		<path class="st2" d="M416.6,318.6c0-3.7,2.5-6.1,6.5-6.1c4,0,6.5,2.4,6.5,6.1s-2.5,6.1-6.5,6.1
			C419.2,324.7,416.6,322.3,416.6,318.6z M426.3,318.6c0-2-1.1-3.1-3.1-3.1s-3.1,1.2-3.1,3.1c0,2,1.1,3.1,3.1,3.1
			S426.3,320.6,426.3,318.6z"/>
		<path class="st2" d="M433.2,312.9h6.7c3,0,4.5,1.4,4.5,4.1c0,1.8-0.8,3.1-2.2,3.6l2.7,3.7H441l-2.1-3h-2.3v3h-3.4V312.9z
			 M439.4,318.6c1.1,0,1.5-0.6,1.5-1.5c0-0.9-0.4-1.5-1.5-1.5h-2.8v3H439.4L439.4,318.6z"/>
		<path class="st2" d="M447.9,312.9h3.4v4.2h1.4l3.3-4.2h3.9l0,0l-4.4,5.5l4.6,6l0,0h-4l-3.5-4.4h-1.4v4.4h-3.4L447.9,312.9
			L447.9,312.9z"/>
		<path class="st2" d="M462.5,323.6v-3.1l0,0c1.9,1,3.8,1.4,5.4,1.4c1.2,0,1.8-0.3,1.8-0.9c0-0.6-0.4-0.7-2.9-1.1
			c-2.7-0.4-4.5-1.2-4.5-3.5c0-2.2,1.9-3.8,5.5-3.8c1.5,0,3,0.3,4.4,0.9v3.1l0,0c-1.3-0.8-3.2-1.3-4.7-1.3c-1.3,0-1.8,0.3-1.8,0.8
			c0,0.7,0.8,0.7,2.8,1.1c2.7,0.5,4.5,1.2,4.5,3.6c0,1.9-1.4,3.7-5.4,3.7C465.8,324.6,464.2,324.2,462.5,323.6z"/>
	</g>
</g>
</svg>
