<svg id="Layer_1" data-name="Layer 1" xmlns="http://www.w3.org/2000/svg" viewBox="0 0 1798.37 240.95"><defs><style>.cls-1{fill:#fa582d;}.cls-2{fill:#00c0e8;}.cls-3{fill:#807c7b;}</style></defs><g id="Parent_Logo_RGB" data-name="Parent Logo RGB"><path d="M415.15,66.78c-12,0-24.43,3.26-39.84,11.51l8.56,21.17C397.25,92,408.3,88.72,416.4,88.72c9.18,0,13.22,3.42,13.22,7.94V97c0,3.11-2.49,4.82-8.56,5.44l-10.58,1.09c-26.45,2.8-37.35,14.32-37.35,30.19v1.09c0,15.1,12.45,26.93,30,26.93,11.57,0,21.64-4.89,27.75-13.52l2,12h24V105.84c0-25.68-14.79-39.06-41.71-39.06M412.82,141c-8.88,0-13.08-3.43-13.08-8.72V132c0-4.67,2.65-8.09,12.3-9.49l4.2-.62c6.14-.86,9.92-2,13.38-4.09v6.89c0,10.42-6.53,16.34-16.8,16.34"/><polygon class="cls-1" points="189.81 67.4 159.15 36.74 128.5 67.4 143.75 82.65 66.87 159.53 97.53 190.18 128.18 159.53 112.93 144.28 189.81 67.4"/><rect class="cls-1" x="20.37" y="68.83" width="108.72" height="43.36" transform="translate(-42.11 79.35) rotate(-45)"/><rect class="cls-1" x="127.59" y="114.74" width="108.72" height="43.36" transform="translate(-43.17 168.62) rotate(-45)"/><rect x="472.42" y="35.65" width="27.23" height="124.5"/><path d="M327.38,66.78c-12.38,0-22.32,5.47-27.8,14l-2.08-12.5h-24V191.27h27.24V148.66c5.18,8,15,13.05,26.61,13.05,21.79,0,39.53-19.3,39.53-45.91v-3.11c0-26.62-17.74-45.91-39.53-45.91M338.9,115c0,14-7.32,24.12-19.46,24.12S300,129,300,115v-1.56c0-14,7.31-24.12,19.45-24.12s19.46,10.12,19.46,24.12Z"/><path d="M867.07,66.78c-27.85,0-47.46,19.29-47.46,45.91v3.11c0,26.61,19.61,45.91,47.46,45.91s47.47-19.3,47.47-45.91v-3.11c0-26.62-19.61-45.91-47.47-45.91M886.53,115c0,14-7.32,24.12-19.46,24.12S847.62,129,847.62,115v-1.56c0-14,7.32-24.12,19.45-24.12s19.46,10.12,19.46,24.12Z"/><path d="M940.22,72.38v-.47c0-2.64-2-4.51-5.61-4.51h-6.22V81.72h3V76.89h3.28l2.47,4.83h3.27l-3-5.67a3.73,3.73,0,0,0,2.89-3.67M931.35,70h3.26c1.87,0,2.65.63,2.65,2v.15c0,1.25-.78,2-2.65,2h-3.26Z"/><path d="M934,59.77a14.79,14.79,0,1,0,14.79,14.79A14.49,14.49,0,0,0,934,59.77m0,27.55c-7.31,0-12.6-5.29-12.6-12.76S926.68,61.8,934,61.8s12.61,5.29,12.61,12.76S941.31,87.32,934,87.32"/><rect x="712.23" y="35.65" width="27.23" height="124.5"/><path d="M793.15,139.14c-7.93,0-10.89-3.89-10.89-12.29V89.34h32.06v-21H782.26v-21l-27.23,4v78.12c0,21.32,10.89,32.22,32.68,32.22a64.44,64.44,0,0,0,30.34-8.25l-7.78-19.3c-5.44,3-13.07,5-17.12,5"/><path d="M655,66.78c-12,0-24.43,3.26-39.84,11.51l8.56,21.17c13.39-7.47,24.44-10.74,32.53-10.74,9.18,0,13.23,3.42,13.23,7.94V97c0,3.11-2.49,4.82-8.56,5.44l-10.59,1.09c-26.45,2.8-37.35,14.32-37.35,30.19v1.09c0,15.1,12.46,26.93,30,26.93,11.58,0,21.64-4.89,27.75-13.52l2,12h24V105.84c0-25.68-14.78-39.06-41.71-39.06M652.63,141c-8.87,0-13.07-3.43-13.07-8.72V132c0-4.67,2.64-8.09,12.29-9.49l4.2-.62c6.14-.86,9.92-2,13.39-4.09v6.89c0,10.42-6.54,16.34-16.81,16.34"/><path d="M559.26,66.78c-27.86,0-47.47,19.29-47.47,45.91v3.11c0,26.61,19.61,45.91,47.47,45.91s47.46-19.3,47.46-45.91v-3.11c0-26.62-19.61-45.91-47.46-45.91M578.71,115c0,14-7.32,24.12-19.45,24.12S539.8,129,539.8,115v-1.56c0-14,7.32-24.12,19.46-24.12s19.45,10.12,19.45,24.12Z"/><polygon points="670.73 182.22 677.71 182.22 687.34 194.93 687.43 194.93 687.43 182.22 693.84 182.22 693.84 204.63 687.08 204.63 677.23 191.6 677.13 191.6 677.13 204.63 670.73 204.63 670.73 182.22"/><polygon points="702.35 182.22 721.93 182.22 722.19 187.67 709.04 187.67 709.04 190.74 719.37 190.74 719.37 195.7 709.04 195.7 709.04 199.19 722.57 199.19 722.32 204.63 702.35 204.63 702.35 182.22"/><polygon points="736.2 187.99 728.36 187.99 728.62 182.22 750.54 182.22 750.8 187.99 742.96 187.99 742.96 204.63 736.2 204.63 736.2 187.99"/><polygon points="756.21 182.22 763.37 182.22 767.02 197.78 767.38 197.78 772.11 182.22 778.67 182.22 783.31 197.78 783.66 197.78 787.25 182.22 794.1 182.22 788.21 204.63 779.41 204.63 775.31 191.12 775.12 191.12 770.96 204.63 762.13 204.63 756.21 182.22"/><path d="M799,193.43c0-7.3,5-11.88,12.8-11.88s12.81,4.58,12.81,11.88-5,11.87-12.81,11.87S799,200.72,799,193.43m18.92,0c0-3.88-2.24-6.18-6.12-6.18s-6.11,2.3-6.11,6.18,2.24,6.17,6.08,6.17,6.15-2.3,6.15-6.17"/><path d="M831.89,182.23H845c5.95,0,8.86,2.81,8.86,8,0,3.58-1.47,6-4.35,7.17l5.31,7.2h-7.62L843,198.74h-4.42v5.89h-6.72Zm12.19,11.26c2.24,0,3-1.25,3-2.94s-.8-2.92-3-2.92h-5.47v5.86Z"/><polygon points="862.55 182.22 869.27 182.22 869.27 190.48 872.02 190.48 878.58 182.22 886.13 182.22 886.16 182.26 877.59 192.98 886.64 204.59 886.61 204.63 878.77 204.63 871.99 196.02 869.27 196.02 869.27 204.63 862.55 204.63 862.55 182.22"/><path d="M891.8,203.16V197h0a23.92,23.92,0,0,0,10.56,2.82c2.4,0,3.62-.58,3.62-1.7s-.81-1.41-5.61-2.18c-5.24-.83-8.73-2.4-8.73-6.91,0-4.19,3.68-7.42,10.88-7.42a22.43,22.43,0,0,1,8.67,1.79v6.08l0,0a19.71,19.71,0,0,0-9.12-2.49c-2.56,0-3.59.6-3.59,1.63,0,1.31,1.57,1.44,5.51,2.11,5.25.9,8.74,2.37,8.74,7.11,0,3.67-2.76,7.36-10.66,7.36a26.69,26.69,0,0,1-10.27-2.08"/></g><rect x="1042.39" y="31.48" width="1.8" height="178"/><path d="M1526.45,105.84c19.44,2.77,28.51,6.87,28.51,18.3,0,11.68-13.56,18.78-31.12,18.78a72.8,72.8,0,0,1-27.69-5.23c-.4-.16-1-.4-1.53-.65v-13.6a66.18,66.18,0,0,0,6,2.82c7.13,2.89,15.44,4.82,22.47,4.82,10.86,0,15.76-2.45,15.76-6.21,0-3.35-3.27-4.82-16.66-6.7-19-2.69-28.67-6.77-28.67-18.21,0-10.29,11.93-18.37,30-18.37,10.13,0,17.81,1.62,25.08,4.73l.33.13V100c-1.55-.73-3.11-1.46-4.83-2.12a58.08,58.08,0,0,0-21.39-4.49c-9.23,0-13.15,2.61-13.15,5.71s3,4.66,16.9,6.7Zm-239.8,5.53V94.7H1303c9,0,12.58,3.37,12.58,8.34,0,5.14-3.28,8.33-13.29,8.33Zm18.61-28.63h-34v59h15.43V123.25h17.81c16.22,0,26.42-7.54,26.42-20.48,0-12.23-9.22-20-25.62-20Zm66.92,27.39V94.62h20.21c8.69,0,12.23,2.74,12.23,7.71,0,5.23-4.34,7.8-12.94,7.8Zm0,31.64V121.56h16.22l17.11,20.21h17.64l-18.44-21.36c9.22-2.48,15.51-8.78,15.51-18.35,0-12.14-8.59-19.32-24.81-19.32h-38.65v59Zm93.52-59h-15.52v59h15.52v-59Zm136.15,0h-22.51v59h14.27V97.72h.18l22.78,44.14h11l22.78-44.14h.18v44.05h15.24v-59h-22.52l-20.47,40.15h-.27l-20.65-40.15Zm113.85,37.67,11.53-23.49h.18l11.52,23.49Zm28.55,10.81,5.22,10.55h16.67L1736,82.38h-16.84l-30.05,59.39h16.05l5.22-10.55Z"/><path d="M1767.78,88.31v-.23c0-1.25-1-2.13-2.66-2.13h-2.94v6.78h1.4V90.44h1.55l1.17,2.29h1.55L1766.41,90a1.77,1.77,0,0,0,1.37-1.73m-4.2-1.11h1.54c.89,0,1.26.29,1.26,1v.07c0,.59-.37,1-1.26,1h-1.54Z"/><path d="M1764.83,82.34a7,7,0,1,0,7,7,6.86,6.86,0,0,0-7-7m0,13a6,6,0,1,1,6-6,5.79,5.79,0,0,1-6,6"/><polygon class="cls-2" points="1201.94 141.77 1201.94 82.63 1232.84 141.77 1201.94 141.77 1201.94 141.77"/><polygon class="cls-2" points="1201.94 82.63 1171.04 141.77 1201.94 141.77 1201.94 184.35 1138.08 120.48 1170.74 87.8 1175.92 82.63 1201.94 56.6 1201.94 82.63 1201.94 82.63"/><path class="cls-3" d="M1277.48,175.1c1,0,1.37-.32,1.37-1s-.38-1-1.37-1h-3v2.1Zm-.16-4.16c.93,0,1.31-.29,1.31-1s-.41-1-1.31-1h-2.83v2Zm-6.13-4.47h7c2.32,0,3.73,1,3.73,2.81a2.43,2.43,0,0,1-1.88,2.57c1.43.57,2.12,1.32,2.12,2.64,0,2.31-1.77,3.14-4.23,3.14h-6.77V166.47Zm17.71,7.59-4.89-7.59h3.76l2.76,4.45h.16l2.79-4.45h3.66l-4.87,7.58v3.58h-3.37v-3.57Zm23-1.8a1.38,1.38,0,0,0,1.48-1.55,1.35,1.35,0,0,0-1.51-1.54h-2.62v3.09Zm-6-5.79h6.58c2.74,0,4.19,1.58,4.19,4.16,0,2.92-1.87,4.26-4.45,4.26h-3v2.74h-3.34V166.47Zm17.37,6.35h3l-1.19-3.51h-.61l-1.2,3.51Zm-1.18-6.35h5.39l3.87,11.16h-3.5l-.78-2.31h-4.61l-.8,2.31h-3.44l3.87-11.16Zm12.2,0h3.35v8.28h5.91l-.12,2.88h-9.14V166.47Zm20.87,5.58a3,3,0,1,0-3.06,3.08,2.79,2.79,0,0,0,3.06-3.08Zm-9.42,0c0-3.63,2.47-5.91,6.38-5.91s6.37,2.28,6.37,5.91S1356,178,1352.09,178s-6.38-2.28-6.38-5.92Zm26.23.77h3l-1.19-3.51h-.61l-1.19,3.51Zm-1.18-6.35h5.38l3.88,11.16h-3.51l-.78-2.31h-4.61l-.79,2.31h-3.45l3.88-11.16Zm12.2,0h3.34v8.28h5.92l-.13,2.88H1383V166.47Zm13.93,2.87H1393l.13-2.87H1404l.13,2.87h-3.9v8.29h-3.37v-8.29Zm18.88,2.71a3,3,0,1,0-3.06,3.08,2.79,2.79,0,0,0,3.06-3.08Zm-9.42,0c0-3.63,2.47-5.91,6.38-5.91s6.37,2.28,6.37,5.91-2.47,5.92-6.37,5.92-6.38-2.28-6.38-5.92Zm22.21-5.58H1432l4.8,6.33h.05v-6.33h3.19v11.16h-3.37l-4.91-6.49h0v6.49h-3.19V166.47Zm15.48,0h9.75l.13,2.71h-6.55v1.53h5.15v2.47h-5.15v1.74h6.74l-.12,2.71h-10V166.47Zm16.6,2.87h-3.91l.13-2.87h10.92l.13,2.87H1464v8.29h-3.36v-8.29Zm9.7-2.87h3.56l1.82,7.75h.18l2.36-7.75h3.26l2.31,7.75h.18l1.79-7.75h3.41l-2.94,11.16h-4.38l-2-6.72h-.1l-2.07,6.72h-4.4l-2.94-11.16Zm30.48,5.58a3,3,0,1,0-3.06,3.08,2.8,2.8,0,0,0,3.06-3.08Zm-9.42,0c0-3.63,2.47-5.91,6.37-5.91s6.38,2.28,6.38,5.91-2.47,5.92-6.38,5.92-6.37-2.28-6.37-5.92Zm22.17,0a1.33,1.33,0,0,0,1.52-1.46c0-.85-.4-1.45-1.52-1.45h-2.72v2.91Zm-6.07-5.61h6.5c3,0,4.42,1.41,4.42,4a3.5,3.5,0,0,1-2.17,3.58l2.65,3.58h-3.8l-2-2.93h-2.2v2.93h-3.35V166.47Zm14.37,0h3.34v4.12h1.37l3.27-4.12h3.76l0,0-4.27,5.34,4.51,5.79H1530l-3.38-4.29h-1.36v4.29h-3.34V166.47Zm14.27,10.43v-3.06h0a11.94,11.94,0,0,0,5.26,1.4c1.2,0,1.8-.29,1.8-.84s-.39-.71-2.79-1.09c-2.61-.41-4.35-1.19-4.35-3.44,0-2.09,1.84-3.7,5.42-3.7a11.1,11.1,0,0,1,4.32.89v3.05a9.75,9.75,0,0,0-4.55-1.24c-1.27,0-1.78.3-1.78.81s.78.72,2.74,1c2.61.45,4.35,1.18,4.35,3.54,0,1.83-1.37,3.66-5.31,3.66a13.24,13.24,0,0,1-5.11-1Z"/></svg>