<?xml version="1.0" encoding="utf-8"?>
<!-- Generator: Adobe Illustrator 25.2.1, SVG Export Plug-In . SVG Version: 6.00 Build 0)  -->
<svg version="1.1" id="Layer_1" xmlns="http://www.w3.org/2000/svg" xmlns:xlink="http://www.w3.org/1999/xlink" x="0px" y="0px"
	 viewBox="0 0 1920 1762" style="enable-background:new 0 0 1920 1762;" xml:space="preserve">
<style type="text/css">
	.st0{fill:#00C0E8;}
	.st1{opacity:0.95;fill:#FFFFFF;enable-background:new    ;}
	.st2{opacity:0.85;fill:#FFFFFF;enable-background:new    ;}
	.st3{opacity:0.75;fill:#FFFFFF;enable-background:new    ;}
	.st4{opacity:0.65;fill:#FFFFFF;enable-background:new    ;}
	.st5{opacity:0.55;fill:#FFFFFF;enable-background:new    ;}
	.st6{opacity:0.45;fill:#FFFFFF;enable-background:new    ;}
	.st7{opacity:0.35;fill:#FFFFFF;enable-background:new    ;}
	.st8{opacity:0.25;fill:#FFFFFF;enable-background:new    ;}
</style>
<polygon class="st0" points="1782.3,881.7 1041.4,1761.7 929.6,1761.7 1670.5,881.6 1670.6,881.6 931.2,0.3 1042.8,0.3 "/>
<polygon class="st1" points="1782.3,881.7 1041.4,1761.7 929.6,1761.7 1670.5,881.6 1670.6,881.6 931.2,0.3 1042.8,0.3 "/>
<polygon class="st0" points="1670.6,881.7 929.7,1761.7 817.8,1761.7 1558.8,881.7 1558.9,881.6 819.4,0.3 931.1,0.3 1670.5,881.6 
	"/>
<polygon class="st2" points="1670.6,881.7 929.7,1761.7 817.8,1761.7 1558.8,881.7 1558.9,881.6 819.4,0.3 931.1,0.3 1670.5,881.6 
	"/>
<polygon class="st0" points="1558.9,881.7 817.9,1761.7 702.8,1761.7 1443.8,881.7 1443.8,881.6 704.4,0.3 819.4,0.3 1558.8,881.7 
	"/>
<polygon class="st3" points="1558.9,881.7 817.9,1761.7 702.8,1761.7 1443.8,881.7 1443.8,881.6 704.4,0.3 819.4,0.3 1558.8,881.7 
	"/>
<polygon class="st0" points="1443.8,881.7 702.9,1761.7 591.1,1761.7 1332.1,881.7 1332.1,881.6 592.7,0.3 704.3,0.3 1443.8,881.7 
	"/>
<polygon class="st4" points="1443.8,881.7 702.9,1761.7 591.1,1761.7 1332.1,881.7 1332.1,881.6 592.7,0.3 704.3,0.3 1443.8,881.7 
	"/>
<polygon class="st0" points="1332.1,881.7 591.2,1761.7 477.8,1761.7 1218.7,881.7 1218.8,881.6 479.3,0.3 592.6,0.3 1332.1,881.7 
	"/>
<polygon class="st5" points="1332.1,881.7 591.2,1761.7 477.8,1761.7 1218.7,881.7 1218.8,881.6 479.3,0.3 592.6,0.3 1332.1,881.7 
	"/>
<polygon class="st0" points="1218.8,881.7 477.8,1761.7 367.7,1761.7 1108.6,881.7 1108.7,881.6 369.3,0.3 479.3,0.3 1218.7,881.7 
	"/>
<polygon class="st6" points="1218.8,881.7 477.8,1761.7 367.7,1761.7 1108.6,881.7 1108.7,881.6 369.3,0.3 479.3,0.3 1218.7,881.7 
	"/>
<polygon class="st0" points="1108.7,881.7 367.8,1761.7 252.7,1761.7 993.6,881.6 993.7,881.6 254.2,0.3 369.2,0.3 1108.6,881.7 "/>
<polygon class="st7" points="1108.7,881.7 367.8,1761.7 252.7,1761.7 993.6,881.6 993.7,881.6 254.2,0.3 369.2,0.3 1108.6,881.7 "/>
<polygon class="st0" points="993.7,881.7 252.7,1761.7 154.1,1761.7 895.1,881.6 895.1,881.6 155.7,0.3 254.2,0.3 993.6,881.6 "/>
<polygon class="st8" points="993.7,881.7 252.7,1761.7 154.1,1761.7 895.1,881.6 895.1,881.6 155.7,0.3 254.2,0.3 993.6,881.6 "/>
<polygon class="st0" points="895.1,881.7 154.1,1761.7 137.7,1761.7 878.7,881.6 139.2,0.3 155.6,0.3 895.1,881.6 "/>
</svg>
