<?xml version="1.0" encoding="utf-8"?>
<!-- Generator: Adobe Illustrator 25.2.1, SVG Export Plug-In . SVG Version: 6.00 Build 0)  -->
<svg version="1.1" id="Layer_1" xmlns="http://www.w3.org/2000/svg" xmlns:xlink="http://www.w3.org/1999/xlink" x="0px" y="0px"
	 viewBox="0 0 65.5 66.2" style="enable-background:new 0 0 65.5 66.2;" xml:space="preserve">
<style type="text/css">
	.st0{fill:none;stroke:#00C0E8;stroke-width:2;stroke-miterlimit:10;}
	.st1{fill:none;stroke:#00C0E8;stroke-miterlimit:10;}
</style>
<g>
	<circle class="st0" cx="43.8" cy="21.7" r="6.7"/>
	<path class="st0" d="M42.6,40.9c0,0,25.9-18.9,21.4-39.4C43.6-3,24.6,22.9,24.6,22.9l-9.2,1L6,33.3l12,3.9l0,0
		c0.3,1.3,0.8,2.6,1.4,3.8l-3.4,5.8l2.7,2.7l5.8-3.4c1.2,0.7,2.4,1.1,3.8,1.4l0,0l3.9,12l9.4-9.4L42.6,40.9z"/>
	<g>
		<line class="st1" x1="12.8" y1="48.8" x2="3.1" y2="58.5"/>
		<line class="st1" x1="1.5" y1="60" x2="0.4" y2="61.1"/>
		<line class="st1" x1="14.7" y1="50.6" x2="0.4" y2="64.9"/>
		<line class="st1" x1="16.5" y1="52.4" x2="6.8" y2="62.2"/>
		<line class="st1" x1="3.7" y1="65.2" x2="3.1" y2="65.8"/>
	</g>
</g>
</svg>
