<?xml version="1.0" encoding="utf-8"?>
<!-- Generator: Adobe Illustrator 25.2.1, SVG Export Plug-In . SVG Version: 6.00 Build 0)  -->
<svg version="1.1" id="Layer_1" xmlns="http://www.w3.org/2000/svg" xmlns:xlink="http://www.w3.org/1999/xlink" x="0px" y="0px"
	 viewBox="0 0 98.6 41.3" style="enable-background:new 0 0 98.6 41.3;" xml:space="preserve">
<style type="text/css">
	.st0{fill:#FFFFFF;}
</style>
<g id="Layer_2_1_">
	<g id="Layer_4">
		<g>
			<path class="st0" d="M49.7,41.3C38.3,41.3,29,32.1,29,20.7S38.3,0,49.7,0s20.7,9.3,20.7,20.7S61.1,41.3,49.7,41.3z M49.7,2
				C39.4,2,31,10.4,31,20.7s8.4,18.7,18.7,18.7S68.4,31,68.4,20.7C68.3,10.4,60,2,49.7,2z"/>
		</g>
		<g>
			<path class="st0" d="M10.8,31.5C4.8,31.5,0,26.6,0,20.7c0-6,4.8-10.8,10.8-10.8c5.9,0,10.8,4.8,10.8,10.8
				C21.6,26.6,16.7,31.5,10.8,31.5z M10.8,11.9C6,11.9,2,15.8,2,20.7c0,4.8,3.9,8.8,8.8,8.8s8.8-3.9,8.8-8.8S15.6,11.9,10.8,11.9z"
				/>
		</g>
		<g>
			<path class="st0" d="M87.8,31.5c-5.9,0-10.8-4.8-10.8-10.8c0-5.9,4.8-10.8,10.8-10.8c5.9,0,10.8,4.8,10.8,10.8
				C98.6,26.6,93.7,31.5,87.8,31.5z M87.8,11.9c-4.8,0-8.8,3.9-8.8,8.8c0,4.8,3.9,8.8,8.8,8.8c4.8,0,8.8-3.9,8.8-8.8
				C96.6,15.8,92.6,11.9,87.8,11.9z"/>
		</g>
		<g>
			<path class="st0" d="M49.7,37.9h-0.4c-0.2,0-0.4-0.2-0.4-0.4s0.2-0.4,0.4-0.4h0.4h0.4l0,0c0.2,0,0.4,0.2,0.4,0.4
				s-0.2,0.4-0.4,0.4H49.7z M52.4,37.7c-0.2,0-0.4-0.1-0.4-0.3s0.1-0.4,0.3-0.4s0.5-0.1,0.8-0.1c0.2,0,0.4,0.1,0.5,0.3
				c0,0.2-0.1,0.4-0.3,0.5C52.9,37.6,52.7,37.6,52.4,37.7L52.4,37.7z M46.9,37.7L46.9,37.7c-0.3,0-0.6-0.1-0.8-0.2
				c-0.2,0-0.3-0.3-0.3-0.5s0.3-0.3,0.5-0.3c0.2,0.1,0.5,0.1,0.7,0.1s0.4,0.2,0.3,0.4C47.3,37.5,47.1,37.7,46.9,37.7z M55.4,36.9
				c-0.2,0-0.3-0.1-0.4-0.3c-0.1-0.2,0-0.4,0.2-0.5s0.5-0.2,0.7-0.3s0.4,0,0.5,0.2s0,0.4-0.2,0.5S55.7,36.7,55.4,36.9
				C55.5,36.9,55.4,36.9,55.4,36.9z M43.9,36.9L43.9,36.9c-0.3-0.1-0.6-0.2-0.8-0.3s-0.3-0.3-0.2-0.5s0.3-0.3,0.5-0.2
				s0.5,0.2,0.7,0.3s0.3,0.3,0.2,0.5C44.2,36.8,44.1,36.9,43.9,36.9z M58.2,35.6c-0.1,0-0.3-0.1-0.3-0.2c-0.1-0.2,0-0.4,0.1-0.5
				c0.2-0.1,0.4-0.3,0.6-0.4c0.2-0.1,0.4-0.1,0.5,0.1c0.1,0.2,0.1,0.4-0.1,0.5c-0.2,0.1-0.4,0.3-0.7,0.4
				C58.3,35.6,58.2,35.6,58.2,35.6z M41.1,35.5c-0.1,0-0.1,0-0.2-0.1c-0.2-0.1-0.5-0.3-0.7-0.4c-0.2-0.1-0.2-0.4-0.1-0.5
				c0.1-0.2,0.4-0.2,0.5-0.1c0.2,0.1,0.4,0.3,0.6,0.4c0.2,0.1,0.2,0.3,0.1,0.5C41.4,35.5,41.3,35.5,41.1,35.5z M60.7,33.8
				c-0.1,0-0.2,0-0.3-0.1c-0.1-0.2-0.1-0.4,0-0.5c0.2-0.2,0.4-0.3,0.6-0.5c0.2-0.1,0.4-0.1,0.6,0c0.1,0.2,0.1,0.4,0,0.6
				c-0.2,0.2-0.4,0.4-0.6,0.5C60.9,33.7,60.8,33.8,60.7,33.8z M38.6,33.7c-0.1,0-0.2,0-0.3-0.1c-0.2-0.2-0.4-0.4-0.6-0.5
				c-0.2-0.1-0.2-0.4,0-0.6c0.1-0.2,0.4-0.2,0.6,0c0.2,0.2,0.4,0.3,0.6,0.5c0.2,0.1,0.2,0.4,0,0.5C38.8,33.7,38.7,33.7,38.6,33.7z
				 M62.8,31.5c-0.1,0-0.2,0-0.2-0.1c-0.2-0.1-0.2-0.4-0.1-0.5c0.2-0.2,0.3-0.4,0.5-0.6c0.1-0.2,0.4-0.2,0.5-0.1
				c0.2,0.1,0.2,0.4,0.1,0.5c-0.2,0.2-0.3,0.4-0.5,0.6C63.1,31.5,63,31.5,62.8,31.5z M36.5,31.5c-0.1,0-0.2-0.1-0.3-0.1
				c-0.2-0.2-0.3-0.4-0.5-0.6c-0.1-0.2-0.1-0.4,0.1-0.5c0.2-0.1,0.4-0.1,0.5,0.1s0.3,0.4,0.5,0.6c0.1,0.2,0.1,0.4-0.1,0.5
				C36.6,31.5,36.6,31.5,36.5,31.5z M64.5,28.9c-0.1,0-0.1,0-0.2,0c-0.2-0.1-0.3-0.3-0.2-0.5c0.1-0.2,0.2-0.5,0.3-0.7
				c0.1-0.2,0.3-0.3,0.5-0.2c0.2,0.1,0.3,0.3,0.2,0.5c-0.1,0.2-0.2,0.5-0.4,0.7C64.8,28.8,64.7,28.9,64.5,28.9z M34.8,28.9
				c-0.1,0-0.3-0.1-0.3-0.2c-0.1-0.2-0.2-0.5-0.4-0.7c-0.1-0.2,0-0.4,0.2-0.5s0.4,0,0.5,0.2s0.2,0.5,0.3,0.7S35.1,28.8,34.8,28.9
				C34.9,28.9,34.8,28.9,34.8,28.9z M65.7,26L65.7,26c-0.3-0.1-0.4-0.3-0.4-0.5c0.1-0.2,0.1-0.5,0.2-0.7s0.3-0.3,0.5-0.3
				c0.2,0.1,0.3,0.3,0.3,0.5c-0.1,0.3-0.1,0.5-0.2,0.8C66.1,25.9,65.9,26,65.7,26z M33.6,26c-0.2,0-0.3-0.1-0.4-0.3
				c-0.1-0.3-0.2-0.5-0.2-0.8c-0.1-0.2,0.1-0.4,0.3-0.5c0.2,0,0.4,0.1,0.5,0.3c0.1,0.2,0.1,0.5,0.2,0.7C34.1,25.6,33.9,25.8,33.6,26
				C33.7,26,33.6,26,33.6,26z M66.4,23C66.4,23,66.3,23,66.4,23c-0.3,0-0.4-0.2-0.4-0.4c0-0.3,0.1-0.5,0.1-0.8
				c0-0.2,0.2-0.4,0.4-0.4c0.2,0,0.4,0.2,0.4,0.4c0,0.3,0,0.5-0.1,0.8C66.7,22.9,66.6,23,66.4,23z M33,23c-0.2,0-0.4-0.1-0.4-0.3
				c0-0.3-0.1-0.5-0.1-0.8c0-0.2,0.1-0.4,0.4-0.4c0.2,0,0.4,0.1,0.4,0.4s0,0.5,0.1,0.8C33.4,22.8,33.2,22.9,33,23L33,23z M66.5,19.9
				c-0.2,0-0.4-0.2-0.4-0.4c0-0.3,0-0.5-0.1-0.8c0-0.2,0.1-0.4,0.3-0.4c0.2,0,0.4,0.1,0.4,0.3c0,0.3,0.1,0.5,0.1,0.8
				C66.9,19.7,66.7,19.9,66.5,19.9L66.5,19.9z M32.9,19.9L32.9,19.9c-0.2,0-0.4-0.2-0.4-0.4c0-0.3,0-0.5,0.1-0.8
				c0-0.2,0.2-0.4,0.4-0.3c0.2,0,0.4,0.2,0.3,0.4c0,0.3-0.1,0.5-0.1,0.8C33.3,19.7,33.1,19.9,32.9,19.9z M66,16.8
				c-0.2,0-0.3-0.1-0.4-0.3c-0.1-0.2-0.1-0.5-0.2-0.7c-0.1-0.2,0.1-0.4,0.3-0.5c0.2-0.1,0.4,0.1,0.5,0.3c0.1,0.3,0.2,0.5,0.2,0.8
				C66.4,16.6,66.3,16.8,66,16.8L66,16.8z M33.4,16.8C33.4,16.8,33.3,16.8,33.4,16.8c-0.3-0.1-0.4-0.3-0.4-0.5
				c0.1-0.3,0.1-0.5,0.2-0.8c0.1-0.2,0.3-0.3,0.5-0.3c0.2,0.1,0.3,0.3,0.3,0.5c-0.1,0.2-0.1,0.5-0.2,0.7
				C33.7,16.7,33.6,16.8,33.4,16.8z M64.9,13.9c-0.1,0-0.3-0.1-0.4-0.2c-0.1-0.2-0.2-0.5-0.3-0.7c-0.1-0.2,0-0.4,0.2-0.5
				s0.4,0,0.5,0.2s0.2,0.5,0.4,0.7c0.1,0.2,0,0.4-0.2,0.5C65,13.9,65,13.9,64.9,13.9z M34.5,13.9c-0.1,0-0.1,0-0.2,0
				c-0.2-0.1-0.3-0.3-0.2-0.5s0.2-0.5,0.4-0.7c0.1-0.2,0.3-0.3,0.5-0.2s0.3,0.3,0.2,0.5s-0.2,0.5-0.3,0.7
				C34.7,13.8,34.6,13.9,34.5,13.9z M63.3,11.2c-0.1,0-0.2-0.1-0.3-0.2c-0.1-0.2-0.3-0.4-0.5-0.6c-0.1-0.2-0.1-0.4,0.1-0.5
				c0.2-0.1,0.4-0.1,0.5,0.1c0.2,0.2,0.3,0.4,0.5,0.6c0.1,0.2,0.1,0.4-0.1,0.5C63.5,11.2,63.4,11.2,63.3,11.2z M36,11.2
				c-0.1,0-0.2,0-0.2-0.1c-0.2-0.1-0.2-0.4-0.1-0.5c0.2-0.2,0.3-0.4,0.5-0.6c0.1-0.2,0.4-0.2,0.5-0.1c0.2,0.1,0.2,0.4,0.1,0.5
				c-0.2,0.2-0.3,0.4-0.5,0.6C36.3,11.2,36.2,11.2,36,11.2z M61.3,8.9c-0.1,0-0.2,0-0.3-0.1c-0.2-0.2-0.4-0.3-0.6-0.5
				c-0.2-0.1-0.2-0.4,0-0.6c0.1-0.2,0.4-0.2,0.5,0c0.2,0.2,0.4,0.4,0.6,0.5c0.2,0.1,0.2,0.4,0,0.6C61.5,8.9,61.4,8.9,61.3,8.9z
				 M38.1,8.9c-0.1,0-0.2,0-0.3-0.1c-0.1-0.2-0.1-0.4,0-0.6C38,8,38.2,7.8,38.4,7.7c0.2-0.1,0.4-0.1,0.6,0c0.1,0.2,0.1,0.4,0,0.6
				c-0.2,0.2-0.4,0.3-0.6,0.5C38.3,8.8,38.2,8.9,38.1,8.9z M58.9,7c-0.1,0-0.1,0-0.2-0.1c-0.2-0.1-0.4-0.3-0.6-0.4
				C57.9,6.4,57.9,6.2,58,6s0.3-0.2,0.5-0.1s0.5,0.3,0.7,0.4s0.2,0.4,0.1,0.5C59.1,6.9,59,7,58.9,7z M40.5,6.9
				c-0.1,0-0.3-0.1-0.3-0.2c-0.1-0.2-0.1-0.4,0.1-0.5c0.2-0.1,0.4-0.3,0.7-0.4c0.2-0.1,0.4,0,0.5,0.1c0.1,0.2,0,0.4-0.1,0.5
				c-0.2,0.1-0.4,0.3-0.6,0.4C40.7,6.9,40.6,6.9,40.5,6.9z M56.1,5.5L56.1,5.5c-0.3-0.1-0.6-0.2-0.8-0.3c-0.2-0.1-0.3-0.3-0.2-0.5
				s0.3-0.3,0.5-0.2c0.2,0.1,0.5,0.2,0.7,0.3c0.2,0.1,0.3,0.3,0.2,0.5C56.4,5.4,56.3,5.5,56.1,5.5z M43.2,5.5
				c-0.2,0-0.3-0.1-0.4-0.2c-0.1-0.2,0-0.4,0.2-0.5s0.5-0.2,0.7-0.3c0.2-0.1,0.4,0,0.5,0.2s0,0.4-0.2,0.5S43.5,5.4,43.2,5.5
				C43.3,5.5,43.3,5.5,43.2,5.5z M53.1,4.6L53.1,4.6c-0.3-0.1-0.6-0.1-0.8-0.1C52.1,4.4,52,4.2,52,4s0.2-0.4,0.4-0.3
				c0.3,0,0.5,0.1,0.8,0.1c0.2,0,0.3,0.3,0.3,0.5C53.5,4.5,53.3,4.6,53.1,4.6z M46.2,4.6c-0.2,0-0.3-0.1-0.4-0.3
				c0-0.2,0.1-0.4,0.3-0.5c0.3-0.1,0.5-0.1,0.8-0.1c0.2,0,0.4,0.1,0.4,0.3c0,0.2-0.1,0.4-0.3,0.4C46.8,4.5,46.5,4.5,46.2,4.6
				C46.3,4.6,46.2,4.6,46.2,4.6z M50.1,4.2L50.1,4.2c-0.1,0-0.3,0-0.4,0h-0.4l0,0c-0.2,0-0.4-0.2-0.4-0.4s0.2-0.4,0.4-0.4h0.4
				c0.1,0,0.3,0,0.4,0c0.2,0,0.4,0.2,0.4,0.4C50.4,4.1,50.3,4.2,50.1,4.2z"/>
		</g>
		<g>
			<path class="st0" d="M49.7,24.3c-1.9,0-3.5-1.6-3.5-3.5s1.6-3.5,3.5-3.5s3.5,1.6,3.5,3.5C53.2,22.7,51.6,24.3,49.7,24.3z
				 M49.7,19.2c-0.8,0-1.5,0.7-1.5,1.5s0.7,1.5,1.5,1.5s1.5-0.7,1.5-1.5S50.5,19.2,49.7,19.2z"/>
		</g>
		<g>
			<rect x="48.7" y="13.7" transform="matrix(0.7076 -0.7066 0.7066 0.7076 5.8986 43.6814)" class="st0" width="14.1" height="2"/>
		</g>
		<g>
			<rect x="44.6" y="22.8" transform="matrix(0.7071 -0.7071 0.7071 0.7071 -3.143 40.0215)" class="st0" width="4.2" height="2"/>
		</g>
		<g>
			<path class="st0" d="M29.9,17.3h-0.8c-0.2,0-0.4-0.2-0.4-0.4s0.2-0.4,0.4-0.4h0.8c0.2,0,0.4,0.2,0.4,0.4S30.2,17.3,29.9,17.3z
				 M26.8,17.3H26c-0.2,0-0.4-0.2-0.4-0.4s0.2-0.4,0.4-0.4h0.8c0.2,0,0.4,0.2,0.4,0.4S27,17.3,26.8,17.3z M23.7,17.3h-0.8
				c-0.2,0-0.4-0.2-0.4-0.4s0.2-0.4,0.4-0.4h0.8c0.2,0,0.4,0.2,0.4,0.4S23.9,17.3,23.7,17.3z M20.6,17.3h-0.8
				c-0.2,0-0.4-0.2-0.4-0.4s0.2-0.4,0.4-0.4h0.8c0.2,0,0.4,0.2,0.4,0.4S20.8,17.3,20.6,17.3z"/>
		</g>
		<g>
			<path class="st0" d="M78.9,17.3h-0.8c-0.2,0-0.4-0.2-0.4-0.4s0.2-0.4,0.4-0.4h0.8c0.2,0,0.4,0.2,0.4,0.4S79.2,17.3,78.9,17.3z
				 M75.8,17.3H75c-0.2,0-0.4-0.2-0.4-0.4s0.2-0.4,0.4-0.4h0.8c0.2,0,0.4,0.2,0.4,0.4S76,17.3,75.8,17.3z M72.7,17.3h-0.8
				c-0.2,0-0.4-0.2-0.4-0.4s0.2-0.4,0.4-0.4h0.8c0.2,0,0.4,0.2,0.4,0.4S72.9,17.3,72.7,17.3z M69.6,17.3h-0.8
				c-0.2,0-0.4-0.2-0.4-0.4s0.2-0.4,0.4-0.4h0.8c0.2,0,0.4,0.2,0.4,0.4S69.8,17.3,69.6,17.3z"/>
		</g>
		<g>
			<path class="st0" d="M29.9,25.3h-0.8c-0.2,0-0.4-0.2-0.4-0.4s0.2-0.4,0.4-0.4h0.8c0.2,0,0.4,0.2,0.4,0.4S30.2,25.3,29.9,25.3z
				 M26.8,25.3H26c-0.2,0-0.4-0.2-0.4-0.4s0.2-0.4,0.4-0.4h0.8c0.2,0,0.4,0.2,0.4,0.4S27,25.3,26.8,25.3z M23.7,25.3h-0.8
				c-0.2,0-0.4-0.2-0.4-0.4s0.2-0.4,0.4-0.4h0.8c0.2,0,0.4,0.2,0.4,0.4S23.9,25.3,23.7,25.3z M20.6,25.3h-0.8
				c-0.2,0-0.4-0.2-0.4-0.4s0.2-0.4,0.4-0.4h0.8c0.2,0,0.4,0.2,0.4,0.4S20.8,25.3,20.6,25.3z"/>
		</g>
		<g>
			<path class="st0" d="M78.9,25.3h-0.8c-0.2,0-0.4-0.2-0.4-0.4s0.2-0.4,0.4-0.4h0.8c0.2,0,0.4,0.2,0.4,0.4S79.2,25.3,78.9,25.3z
				 M75.8,25.3H75c-0.2,0-0.4-0.2-0.4-0.4s0.2-0.4,0.4-0.4h0.8c0.2,0,0.4,0.2,0.4,0.4S76,25.3,75.8,25.3z M72.7,25.3h-0.8
				c-0.2,0-0.4-0.2-0.4-0.4s0.2-0.4,0.4-0.4h0.8c0.2,0,0.4,0.2,0.4,0.4S72.9,25.3,72.7,25.3z M69.6,25.3h-0.8
				c-0.2,0-0.4-0.2-0.4-0.4s0.2-0.4,0.4-0.4h0.8c0.2,0,0.4,0.2,0.4,0.4S69.8,25.3,69.6,25.3z"/>
		</g>
		<g>
			<path class="st0" d="M30.4,21.3h-0.2c-0.2,0-0.4-0.2-0.4-0.4s0.2-0.4,0.4-0.4h0.2c0.2,0,0.4,0.2,0.4,0.4S30.6,21.3,30.4,21.3z
				 M27.8,21.3H27c-0.2,0-0.4-0.2-0.4-0.4s0.2-0.4,0.4-0.4h0.8c0.2,0,0.4,0.2,0.4,0.4S28,21.3,27.8,21.3z M24.7,21.3h-0.8
				c-0.2,0-0.4-0.2-0.4-0.4s0.2-0.4,0.4-0.4h0.8c0.2,0,0.4,0.2,0.4,0.4S24.9,21.3,24.7,21.3z M21.6,21.3h-0.8
				c-0.2,0-0.4-0.2-0.4-0.4s0.2-0.4,0.4-0.4h0.8c0.2,0,0.4,0.2,0.4,0.4S21.8,21.3,21.6,21.3z"/>
		</g>
		<g>
			<path class="st0" d="M78.4,21.3h-0.2c-0.2,0-0.4-0.2-0.4-0.4s0.2-0.4,0.4-0.4h0.2c0.2,0,0.4,0.2,0.4,0.4S78.6,21.3,78.4,21.3z
				 M75.8,21.3H75c-0.2,0-0.4-0.2-0.4-0.4s0.2-0.4,0.4-0.4h0.8c0.2,0,0.4,0.2,0.4,0.4S76,21.3,75.8,21.3z M72.7,21.3h-0.8
				c-0.2,0-0.4-0.2-0.4-0.4s0.2-0.4,0.4-0.4h0.8c0.2,0,0.4,0.2,0.4,0.4S72.9,21.3,72.7,21.3z M69.6,21.3h-0.8
				c-0.2,0-0.4-0.2-0.4-0.4s0.2-0.4,0.4-0.4h0.8c0.2,0,0.4,0.2,0.4,0.4S69.8,21.3,69.6,21.3z"/>
		</g>
	</g>
</g>
</svg>
