<?xml version="1.0" encoding="utf-8"?>
<!-- Generator: Adobe Illustrator 25.2.1, SVG Export Plug-In . SVG Version: 6.00 Build 0)  -->
<svg version="1.1" id="Layer_1" xmlns="http://www.w3.org/2000/svg" xmlns:xlink="http://www.w3.org/1999/xlink" x="0px" y="0px"
	 viewBox="0 0 103.2 103.2" style="enable-background:new 0 0 103.2 103.2;" xml:space="preserve">
<style type="text/css">
	.st0{fill-rule:evenodd;clip-rule:evenodd;fill:none;stroke:#00C0E8;stroke-width:2;stroke-miterlimit:10;}
	.st1{fill:none;stroke:#00C0E8;stroke-linecap:round;stroke-linejoin:round;}
	.st2{fill:none;stroke:#00C0E8;stroke-linecap:round;stroke-linejoin:round;stroke-dasharray:0.9811,2.9434;}
	.st3{fill:none;stroke:#00C0E8;stroke-linecap:round;stroke-linejoin:round;stroke-dasharray:0.9884,1.9767;}
	.st4{fill:none;stroke:#00C0E8;stroke-width:2;stroke-miterlimit:10;}
	.st5{fill:none;stroke:#00C0E8;stroke-width:2;stroke-linecap:round;stroke-miterlimit:10;}
	.st6{fill:none;stroke:#00C0E8;stroke-width:2;stroke-linecap:round;stroke-miterlimit:10;stroke-dasharray:0.9688,5.8131;}
	.st7{fill:#00C0E8;}
	.st8{fill:none;stroke:#00C0E8;stroke-width:2;stroke-linecap:round;stroke-miterlimit:10;stroke-dasharray:1.0077,6.0462;}
	.st9{fill:none;stroke:#00C0E8;stroke-width:2;stroke-linecap:round;stroke-miterlimit:10;stroke-dasharray:0.9943,5.9656;}
</style>
<g>
	<path class="st0" d="M62.6,52l1.7,0.9l-0.2,2.5l-1.8,0.6c-0.2,0.9-0.6,1.8-1,2.7l1,1.6l-1.4,2.1l-1.9-0.4c-0.7,0.7-1.4,1.3-2.2,1.8
		l0,1.9l-2.3,1.1L53,65.7c-0.9,0.3-1.8,0.4-2.8,0.5l-0.9,1.7l-2.5-0.2l-0.6-1.8 M36.6,56.6c-0.3-0.9-0.4-1.8-0.5-2.8l-1.7-0.9
		l0.2-2.5l1.8-0.6c0.2-0.9,0.6-1.8,1-2.7l-1-1.6l1.4-2.1l1.9,0.4c0.7-0.7,1.4-1.3,2.2-1.8l0-1.9l2.3-1.1l1.4,1.3
		c0.9-0.3,1.8-0.4,2.8-0.5l0.9-1.7l0,0"/>
	<g>
		<g>
			<path class="st1" d="M49.4,60.4c0.2,0,0.3,0,0.5,0"/>
			<path class="st2" d="M52.7,59.6c1.9-0.9,3.4-2.7,3.9-4.8"/>
			<path class="st1" d="M56.9,53.4c0-0.2,0-0.3,0-0.5"/>
		</g>
	</g>
	<g>
		<g>
			<path class="st1" d="M49.4,45.4c-0.2,0-0.3,0-0.5,0"/>
			<path class="st2" d="M46,46.2c-1.9,0.9-3.4,2.7-3.9,4.8"/>
			<path class="st1" d="M41.9,52.4c0,0.2,0,0.3,0,0.5"/>
		</g>
	</g>
	<g>
		<ellipse class="st3" cx="39.6" cy="63" rx="1.9" ry="1.9"/>
	</g>
	<path class="st4" d="M51.7,45.1l1.6-1.6c-1.1-3.2-0.3-6.9,2.2-9.5c2.6-2.6,6.4-3.3,9.6-2.2l-5.3,5.3c-0.7,0.7-0.7,1.7,0,2.4
		l3.6,3.6c0.7,0.7,1.7,0.7,2.4,0l5.2-5.1c0.9,3.1,0.2,6.7-2.3,9.2c-2.5,2.5-6,3.3-9.2,2.3L56,52.8l-3.9,3.9L40.2,68.6
		c-0.7,0.7-1.7,0.7-2.4,0L34.1,65c-0.7-0.7-0.7-1.7,0-2.4l10.2-10.2L51.7,45.1z"/>
</g>
<g>
	<g>
		<g>
			<path class="st5" d="M21.9,43.8c0-0.2,0.1-0.3,0.1-0.5"/>
			<path class="st6" d="M24,37.9c5-10.7,15.8-18.1,28.4-18.1c12.8,0,23.8,7.6,28.6,18.6"/>
			<path class="st5" d="M82.1,41c0.1,0.2,0.1,0.3,0.2,0.5"/>
			<g>
				<polygon class="st7" points="27.2,43.1 21.1,51 17.4,41.7 				"/>
			</g>
		</g>
	</g>
	<g>
		<g>
			<path class="st5" d="M82.6,58.9c0,0.2-0.1,0.3-0.1,0.5"/>
			<path class="st6" d="M80.6,64.8C75.6,75.6,64.8,83,52.2,83c-12.8,0-23.8-7.6-28.6-18.6"/>
			<path class="st5" d="M22.5,61.7c-0.1-0.2-0.1-0.3-0.2-0.5"/>
			<g>
				<polygon class="st7" points="77.3,59.6 83.5,51.7 87.2,61 				"/>
			</g>
		</g>
	</g>
</g>
<g>
	<ellipse class="st8" cx="51.6" cy="51.6" rx="41.6" ry="41.5"/>
</g>
<g>
	<ellipse class="st9" cx="51.6" cy="51.6" rx="49.9" ry="49.8"/>
</g>
</svg>
